<svg width="337" height="272" viewBox="0 0 337 272" fill="none" xmlns="http://www.w3.org/2000/svg">
<g clip-path="url(#clip0_9_262)">
<path d="M122.63 206.323C121.609 203.872 121.497 201.137 122.314 198.61C123.13 196.084 124.821 193.933 127.081 192.547C127.833 192.088 127.145 190.9 126.389 191.361C123.797 192.912 121.862 195.362 120.951 198.248C120.04 201.133 120.216 204.253 121.446 207.017C121.792 207.827 122.973 207.128 122.63 206.323Z" fill="#3F3D56"/>
<path d="M123.022 208.171C121.173 204.888 121.608 200.96 122.273 197.41C122.967 193.705 123.877 189.942 123.09 186.174C122.733 184.344 121.888 182.645 120.644 181.259C120.046 180.607 119.078 181.58 119.675 182.23C122 184.761 122.27 188.432 121.892 191.693C121.448 195.539 120.187 199.286 120.344 203.194C120.385 205.177 120.897 207.12 121.838 208.864C121.933 209.015 122.083 209.123 122.256 209.165C122.428 209.207 122.611 209.181 122.764 209.091C122.918 209.001 123.03 208.855 123.079 208.683C123.127 208.511 123.106 208.328 123.022 208.171Z" fill="#3F3D56"/>
<path d="M132.942 218.653H109.643C109.098 218.653 108.576 218.435 108.19 218.049C107.805 217.663 107.588 217.139 107.587 216.593V209.733C107.589 207.97 108.289 206.28 109.532 205.034C110.776 203.787 112.462 203.086 114.221 203.084H117.638C117.82 203.084 117.994 203.012 118.122 202.883C118.251 202.754 118.323 202.579 118.323 202.397V199.192C118.324 198.888 118.444 198.597 118.658 198.383C118.872 198.168 119.163 198.047 119.465 198.047H123.12C123.423 198.047 123.713 198.168 123.927 198.383C124.142 198.597 124.262 198.888 124.262 199.192V202.397C124.263 202.579 124.335 202.754 124.463 202.883C124.592 203.012 124.766 203.084 124.948 203.084H128.365C130.124 203.086 131.81 203.787 133.053 205.034C134.297 206.28 134.996 207.97 134.998 209.733V216.593C134.998 217.139 134.781 217.663 134.395 218.049C134.01 218.435 133.487 218.653 132.942 218.653Z" fill="#CCCCCC"/>
<path d="M121.651 177.459C122.141 180.069 121.534 182.374 120.294 182.608C119.055 182.842 117.652 180.917 117.161 178.307C116.671 175.697 118.179 171.358 118.179 171.358C118.179 171.358 121.16 174.85 121.651 177.459Z" fill="#880720"/>
<path d="M131.059 189.6C129.506 191.751 127.418 192.893 126.396 192.152C125.374 191.41 125.805 189.066 127.358 186.915C128.912 184.764 133.093 182.879 133.093 182.879C133.093 182.879 132.613 187.449 131.059 189.6Z" fill="#880720"/>
<path d="M79.6861 41.4749C78.6658 39.024 78.5537 36.2881 79.37 33.7616C80.1863 31.2351 81.8772 29.0846 84.1372 27.6985C84.8898 27.2398 84.2019 26.0513 83.4455 26.5123C80.8532 28.0638 78.9185 30.5141 78.0076 33.3993C77.0967 36.2845 77.2728 39.4044 78.5026 42.1682C78.8484 42.9786 80.0294 42.2796 79.6861 41.4749Z" fill="#3F3D56"/>
<path d="M80.0781 43.3224C78.2296 40.0399 78.6646 36.1117 79.3295 32.562C80.0236 28.8564 80.9334 25.094 80.1462 21.3253C79.7892 19.4955 78.9441 17.7969 77.7007 16.4102C77.102 15.7583 76.1347 16.7317 76.7316 17.3815C79.0564 19.9124 79.3259 23.5839 78.9489 26.8445C78.5041 30.6903 77.2437 34.4379 77.4001 38.3459C77.441 40.3281 77.9534 42.272 78.8947 44.0158C78.9897 44.1665 79.1393 44.2744 79.312 44.3166C79.4848 44.3589 79.6672 44.3322 79.8207 44.2423C79.9742 44.1523 80.0869 44.0061 80.1349 43.8345C80.1829 43.6629 80.1626 43.4793 80.0781 43.3224Z" fill="#3F3D56"/>
<path d="M89.9988 53.8047H66.6996C66.1546 53.8041 65.632 53.5868 65.2466 53.2005C64.8612 52.8142 64.6444 52.2904 64.6438 51.7441V44.8843C64.6458 43.1216 65.3453 41.4316 66.5889 40.1852C67.8324 38.9388 69.5184 38.2377 71.2771 38.2356H74.6944C74.8761 38.2354 75.0503 38.163 75.1788 38.0342C75.3072 37.9055 75.3795 37.7309 75.3797 37.5488V34.3434C75.38 34.0399 75.5005 33.7489 75.7146 33.5343C75.9287 33.3197 76.219 33.199 76.5218 33.1986H80.1766C80.4794 33.199 80.7697 33.3197 80.9838 33.5343C81.1979 33.7489 81.3183 34.0399 81.3187 34.3434V37.5488C81.3189 37.7309 81.3912 37.9055 81.5196 38.0342C81.6481 38.163 81.8223 38.2354 82.004 38.2356H85.4213C87.18 38.2377 88.866 38.9388 90.1095 40.1852C91.3531 41.4316 92.0526 43.1216 92.0546 44.8843V51.7441C92.054 52.2904 91.8372 52.8142 91.4518 53.2005C91.0664 53.5868 90.5438 53.8041 89.9988 53.8047Z" fill="#CCCCCC"/>
<path d="M78.7072 12.6107C79.1978 15.2202 78.5904 17.5255 77.3507 17.7596C76.111 17.9938 74.7083 16.0681 74.2177 13.4586C73.7272 10.8491 75.2359 6.50977 75.2359 6.50977C75.2359 6.50977 78.2166 10.0012 78.7072 12.6107Z" fill="#880720"/>
<path d="M88.1155 24.7511C86.562 26.9021 84.4743 28.0448 83.4523 27.3033C82.4304 26.5618 82.8614 24.217 84.4148 22.066C85.9683 19.915 90.1495 18.0302 90.1495 18.0302C90.1495 18.0302 89.6689 22.6001 88.1155 24.7511Z" fill="#880720"/>
<path d="M33.3498 124.552H14.6191V131.421H33.3498V124.552Z" fill="#880720"/>
<path d="M33.3498 146.99H14.6191V153.859H33.3498V146.99Z" fill="#880720"/>
<path d="M147.561 271.542H7.76639C5.70732 271.54 3.73326 270.719 2.27728 269.26C0.821295 267.8 0.00230832 265.821 0 263.758V7.78451C0.00230832 5.72064 0.821295 3.74197 2.27728 2.28259C3.73326 0.823211 5.70732 0.00231371 7.76639 0H147.561C149.62 0.00232339 151.595 0.82322 153.051 2.2826C154.507 3.74197 155.326 5.72064 155.328 7.78451V263.758C155.326 265.821 154.507 267.8 153.051 269.26C151.595 270.719 149.62 271.54 147.561 271.542ZM7.76639 0.915825C5.94957 0.917885 4.20776 1.64221 2.92308 2.92989C1.63839 4.21757 0.915749 5.96346 0.913693 7.78451V263.758C0.915749 265.579 1.63839 267.325 2.92308 268.612C4.20776 269.9 5.94957 270.624 7.76639 270.626H147.561C149.378 270.624 151.12 269.9 152.405 268.612C153.689 267.325 154.412 265.579 154.414 263.758V7.78451C154.412 5.96346 153.689 4.21757 152.405 2.92989C151.12 1.64221 149.378 0.917885 147.561 0.915825H7.76639Z" fill="#3F3D56"/>
<path d="M154.871 52.8672H0.456787V53.783H154.871V52.8672Z" fill="#3F3D56"/>
<path d="M154.871 107.831H0.456787V108.747H154.871V107.831Z" fill="#3F3D56"/>
<path d="M154.871 162.795H0.456787V163.711H154.871V162.795Z" fill="#3F3D56"/>
<path d="M154.871 217.759H0.456787V218.675H154.871V217.759Z" fill="#3F3D56"/>
<path d="M31.9794 163.933H16.4466C15.841 163.932 15.2604 163.691 14.8322 163.261C14.4039 162.832 14.1631 162.25 14.1624 161.643V117.226C14.1631 116.619 14.4039 116.037 14.8322 115.607C15.2604 115.178 15.841 114.937 16.4466 114.936H31.9794C32.585 114.937 33.1656 115.178 33.5938 115.607C34.022 116.037 34.2629 116.619 34.2636 117.226V161.643C34.2629 162.25 34.022 162.832 33.5938 163.261C33.1656 163.691 32.585 163.932 31.9794 163.933ZM16.4466 115.852C16.0832 115.852 15.7349 115.997 15.4779 116.255C15.221 116.512 15.0765 116.861 15.076 117.226V161.643C15.0765 162.007 15.221 162.356 15.4779 162.614C15.7349 162.872 16.0832 163.016 16.4466 163.017H31.9794C32.3427 163.016 32.6911 162.872 32.948 162.614C33.205 162.356 33.3495 162.007 33.3499 161.643V117.226C33.3495 116.861 33.205 116.512 32.948 116.255C32.6911 115.997 32.3427 115.852 31.9794 115.852H16.4466Z" fill="#3F3D56"/>
<path d="M62.1311 124.552H43.4004V131.421H62.1311V124.552Z" fill="#880720"/>
<path d="M62.1311 146.99H43.4004V153.859H62.1311V146.99Z" fill="#880720"/>
<path d="M60.7606 163.933H45.2278C44.6222 163.932 44.0416 163.691 43.6134 163.261C43.1852 162.832 42.9443 162.25 42.9436 161.643V117.226C42.9443 116.619 43.1852 116.037 43.6134 115.607C44.0416 115.178 44.6222 114.937 45.2278 114.936H60.7606C61.3662 114.937 61.9468 115.178 62.375 115.607C62.8033 116.037 63.0441 116.619 63.0449 117.226V161.643C63.0441 162.25 62.8033 162.832 62.375 163.261C61.9468 163.691 61.3662 163.932 60.7606 163.933ZM45.2278 115.852C44.8645 115.852 44.5161 115.997 44.2592 116.255C44.0022 116.512 43.8577 116.861 43.8573 117.226V161.643C43.8577 162.007 44.0022 162.356 44.2592 162.614C44.5161 162.872 44.8645 163.016 45.2278 163.017H60.7606C61.124 163.016 61.4723 162.872 61.7293 162.614C61.9862 162.356 62.1308 162.007 62.1312 161.643V117.226C62.1308 116.861 61.9862 116.512 61.7293 116.255C61.4723 115.997 61.124 115.852 60.7606 115.852H45.2278Z" fill="#3F3D56"/>
<path d="M107.816 69.1448H89.085V76.0135H107.816V69.1448Z" fill="#880720"/>
<path d="M107.816 91.5825H89.085V98.4512H107.816V91.5825Z" fill="#880720"/>
<path d="M106.445 108.525H90.9124C90.3068 108.524 89.7262 108.283 89.298 107.854C88.8698 107.425 88.6289 106.843 88.6282 106.236V61.8181C88.6289 61.2111 88.8698 60.6292 89.298 60.1999C89.7262 59.7707 90.3068 59.5293 90.9124 59.5286H106.445C107.051 59.5293 107.631 59.7707 108.06 60.1999C108.488 60.6292 108.729 61.2111 108.729 61.8181V106.236C108.729 106.843 108.488 107.425 108.06 107.854C107.631 108.283 107.051 108.525 106.445 108.525ZM90.9124 60.4444C90.549 60.4448 90.2007 60.5897 89.9437 60.8472C89.6868 61.1047 89.5423 61.4539 89.5419 61.8181V106.236C89.5423 106.6 89.6868 106.949 89.9437 107.207C90.2007 107.464 90.549 107.609 90.9124 107.609H106.445C106.809 107.609 107.157 107.464 107.414 107.207C107.671 106.949 107.815 106.6 107.816 106.236V61.8181C107.815 61.4539 107.671 61.1047 107.414 60.8472C107.157 60.5896 106.809 60.4448 106.445 60.4444H90.9124Z" fill="#3F3D56"/>
<path d="M136.597 69.1448H117.866V76.0135H136.597V69.1448Z" fill="#880720"/>
<path d="M136.597 91.5825H117.866V98.4512H136.597V91.5825Z" fill="#880720"/>
<path d="M135.227 108.525H119.694C119.088 108.525 118.508 108.283 118.079 107.854C117.651 107.425 117.41 106.843 117.41 106.236V61.8181C117.41 61.2111 117.651 60.6292 118.079 60.1999C118.508 59.7707 119.088 59.5293 119.694 59.5286H135.227C135.832 59.5293 136.413 59.7707 136.841 60.1999C137.269 60.6292 137.51 61.2111 137.511 61.8181V106.236C137.51 106.843 137.269 107.425 136.841 107.854C136.413 108.283 135.832 108.525 135.227 108.525ZM119.694 60.4444C119.331 60.4448 118.982 60.5896 118.725 60.8472C118.468 61.1047 118.324 61.4539 118.323 61.8181V106.236C118.324 106.6 118.468 106.949 118.725 107.207C118.982 107.464 119.331 107.609 119.694 107.609H135.227C135.59 107.609 135.938 107.464 136.195 107.207C136.452 106.949 136.597 106.6 136.597 106.236V61.8181C136.597 61.4539 136.452 61.1047 136.195 60.8472C135.938 60.5896 135.59 60.4448 135.227 60.4444H119.694Z" fill="#3F3D56"/>
<path d="M85.1059 120.45L67.5723 127.054L69.9827 133.484L87.5164 126.88L85.1059 120.45Z" fill="#880720"/>
<path d="M92.98 141.454L75.4463 148.058L77.8568 154.488L95.3904 147.884L92.98 141.454Z" fill="#880720"/>
<path d="M82.2982 163.421C81.8336 163.42 81.3804 163.278 80.9986 163.012C80.6169 162.747 80.3248 162.371 80.1611 161.936L64.5734 120.357C64.3611 119.788 64.3824 119.159 64.6326 118.606C64.8828 118.053 65.3415 117.622 65.9081 117.408L80.4483 111.932C80.7291 111.826 81.0279 111.777 81.3278 111.787C81.6276 111.797 81.9225 111.866 82.1957 111.99C82.4689 112.114 82.7149 112.291 82.9199 112.511C83.1248 112.73 83.2846 112.988 83.39 113.27L98.9777 154.849C99.19 155.417 99.1688 156.047 98.9186 156.599C98.6684 157.152 98.2096 157.583 97.6431 157.797L83.1028 163.273C82.8457 163.371 82.5731 163.421 82.2982 163.421ZM81.2526 112.701C81.0876 112.701 80.924 112.731 80.7697 112.789L66.2296 118.265C65.8896 118.394 65.6143 118.652 65.4642 118.984C65.3141 119.316 65.3013 119.694 65.4287 120.035L81.0164 161.614C81.0797 161.782 81.1756 161.937 81.2985 162.069C81.4215 162.201 81.5691 162.307 81.733 162.381C81.8969 162.456 82.0739 162.497 82.2538 162.503C82.4337 162.509 82.613 162.48 82.7814 162.416L97.3216 156.94C97.6615 156.811 97.9368 156.553 98.0869 156.221C98.2371 155.889 98.2498 155.512 98.1224 155.171L82.5347 113.592C82.4365 113.33 82.2612 113.105 82.0322 112.946C81.8032 112.787 81.5313 112.701 81.2526 112.701Z" fill="#3F3D56"/>
<path d="M22.061 65.9585L4.52734 72.5625L6.93781 78.9922L24.4715 72.3882L22.061 65.9585Z" fill="#880720"/>
<path d="M29.9353 86.9624L12.4016 93.5664L14.8121 99.9961L32.3457 93.3921L29.9353 86.9624Z" fill="#880720"/>
<path d="M19.2532 108.93C18.7887 108.929 18.3354 108.786 17.9537 108.521C17.572 108.255 17.2798 107.88 17.1162 107.444L1.52846 65.8652C1.31616 65.2968 1.33744 64.6672 1.58765 64.1144C1.83785 63.5617 2.29655 63.131 2.86314 62.9168L17.4034 57.4404C17.6842 57.3346 17.983 57.2852 18.2828 57.2952C18.5827 57.3052 18.8776 57.3743 19.1508 57.4985C19.4239 57.6228 19.67 57.7997 19.8749 58.0193C20.0799 58.2389 20.2396 58.4968 20.3451 58.7783L35.9328 100.357C36.1451 100.926 36.1238 101.555 35.8736 102.108C35.6234 102.661 35.1647 103.091 34.5981 103.306L20.0579 108.782C19.8007 108.879 19.5281 108.929 19.2532 108.93ZM18.2077 58.2091C18.0427 58.2093 17.8791 58.2393 17.7248 58.2976L3.18464 63.774C2.84465 63.9026 2.5694 64.161 2.41927 64.4927C2.26913 64.8244 2.25636 65.2022 2.38376 65.5433L17.9715 107.122C18.0348 107.291 18.1306 107.446 18.2536 107.577C18.3766 107.709 18.5242 107.815 18.6881 107.89C18.852 107.964 19.029 108.006 19.2089 108.012C19.3887 108.018 19.568 107.988 19.7365 107.925L34.2766 102.448C34.6166 102.32 34.8919 102.061 35.042 101.73C35.1922 101.398 35.2049 101.02 35.0775 100.679L19.4898 59.1003C19.3916 58.8389 19.2163 58.6136 18.9873 58.4544C18.7583 58.2952 18.4863 58.2097 18.2077 58.2091Z" fill="#3F3D56"/>
<path d="M286.443 114.478C294.264 114.478 300.605 108.123 300.605 100.283C300.605 92.4431 294.264 86.0876 286.443 86.0876C278.621 86.0876 272.281 92.4431 272.281 100.283C272.281 108.123 278.621 114.478 286.443 114.478Z" fill="#2F2E41"/>
<path d="M223.526 165.064C224.195 165.324 224.913 165.434 225.629 165.385C226.345 165.337 227.041 165.132 227.669 164.785C228.298 164.437 228.842 163.956 229.265 163.375C229.688 162.794 229.978 162.127 230.116 161.421L269.056 136.795L261.968 128.797L225.903 155.535C224.705 155.382 223.492 155.674 222.495 156.357C221.498 157.04 220.785 158.067 220.492 159.241C220.199 160.416 220.346 161.657 220.905 162.731C221.464 163.804 222.397 164.634 223.526 165.064Z" fill="#FFB8B8"/>
<path d="M260.926 143.342C260.581 143.343 260.242 143.257 259.939 143.092C259.637 142.926 259.38 142.688 259.193 142.397L254.684 135.373C254.399 134.93 254.295 134.394 254.393 133.876C254.49 133.358 254.782 132.897 255.208 132.588L270.298 121.657C271.03 121.126 271.861 120.748 272.742 120.545C273.622 120.342 274.534 120.318 275.424 120.475C276.314 120.632 277.163 120.965 277.922 121.457C278.681 121.948 279.334 122.587 279.842 123.336C280.35 124.085 280.703 124.928 280.881 125.816C281.058 126.704 281.056 127.618 280.874 128.506C280.693 129.393 280.336 130.234 279.824 130.981C279.312 131.727 278.656 132.363 277.895 132.851L262.029 143.019C261.7 143.23 261.317 143.343 260.926 143.342Z" fill="#2F2E41"/>
<path d="M267.664 265.978L262.063 265.978L259.398 244.324L267.665 244.325L267.664 265.978Z" fill="#FFB8B8"/>
<path d="M258.062 264.374H268.864V271.191H251.261C251.261 270.296 251.437 269.409 251.779 268.582C252.121 267.755 252.622 267.004 253.253 266.371C253.885 265.738 254.634 265.236 255.46 264.893C256.285 264.55 257.169 264.374 258.062 264.374Z" fill="#2F2E41"/>
<path d="M293.811 261.781L288.418 263.299L280.013 243.173L287.972 240.933L293.811 261.781Z" fill="#FFB8B8"/>
<path d="M284.134 262.838L294.534 259.912L296.372 266.475L279.424 271.244C279.183 270.382 279.113 269.481 279.219 268.592C279.325 267.703 279.605 266.844 280.042 266.063C280.48 265.283 281.066 264.596 281.768 264.043C282.47 263.489 283.274 263.08 284.134 262.838Z" fill="#2F2E41"/>
<path d="M308.901 228.55L287.157 202.829L300.352 186.782C300.545 186.546 300.788 186.357 301.064 186.227C301.339 186.098 301.64 186.031 301.944 186.032C302.248 186.033 302.548 186.101 302.823 186.233C303.098 186.364 303.34 186.555 303.532 186.791L323.497 211.351L308.901 228.55Z" fill="#880720"/>
<path d="M288.035 203.02C288.355 202.442 288.753 201.91 289.216 201.439L301.81 188.641C302.304 188.137 302.968 187.838 303.672 187.803C305.111 187.735 307.471 187.881 308.129 189.464L291.126 203.407L288.035 203.02Z" fill="#F2F2F2"/>
<path d="M309.657 233.993C308.687 233.964 307.745 233.665 306.935 233.129L306.875 233.067L286.96 202.538L290.265 202.218L307.975 188.372C308.199 188.197 308.456 188.07 308.731 188C309.006 187.93 309.292 187.917 309.572 187.963C309.852 188.009 310.119 188.112 310.357 188.267C310.595 188.421 310.799 188.623 310.955 188.86L330.314 218.23C330.612 218.683 330.719 219.236 330.613 219.768C330.507 220.3 330.197 220.769 329.749 221.074L311.015 233.735C310.583 233.908 310.122 233.995 309.657 233.993Z" fill="#880720"/>
<path d="M302.614 213.11C302.426 213.11 302.242 213.064 302.076 212.976C301.911 212.888 301.769 212.76 301.665 212.605L299.377 209.198C299.208 208.946 299.146 208.638 299.204 208.34C299.262 208.042 299.435 207.779 299.686 207.609L311.423 199.689C311.675 199.52 311.983 199.458 312.28 199.516C312.577 199.574 312.839 199.748 313.009 200L315.296 203.406C315.465 203.658 315.527 203.967 315.469 204.264C315.411 204.562 315.238 204.825 314.987 204.995L303.25 212.915C303.062 213.042 302.84 213.11 302.614 213.11Z" fill="#3F3D56"/>
<path d="M258.512 262.703C257.887 262.701 257.286 262.465 256.826 262.041C256.367 261.617 256.082 261.036 256.027 260.412C255.031 249.063 250.031 191.863 249.482 180.311C248.872 167.476 259.529 147.171 259.637 146.968L259.71 146.828L264.978 147.488V148.102L269.991 148.693L279.694 149.634L282.472 183.666L283.7 206.746L295.24 253.885C295.37 254.407 295.291 254.959 295.019 255.423C294.746 255.887 294.303 256.225 293.784 256.364L283.741 259.109C283.219 259.249 282.663 259.179 282.192 258.913C281.721 258.647 281.373 258.206 281.223 257.685L271.767 224.392C271.721 224.231 271.618 224.092 271.478 224.002C271.337 223.911 271.168 223.876 271.003 223.901C270.838 223.927 270.688 224.012 270.581 224.141C270.474 224.27 270.418 224.434 270.423 224.601L271.423 257.065C271.428 257.398 271.365 257.729 271.238 258.037C271.111 258.345 270.923 258.624 270.684 258.856C268.382 261.023 262.3 262.18 258.879 262.677C258.757 262.695 258.635 262.704 258.512 262.703Z" fill="#2F2E41"/>
<path d="M288.69 119.695C287.096 118.03 276.596 120.318 274.264 122.771L258.304 148.921L284.7 153.843L290.531 120.618L288.69 119.695Z" fill="#880720"/>
<path d="M281.771 186.132C281.203 186.132 280.638 186.038 280.1 185.853C278.567 185.326 276.687 184.774 274.514 184.214C264.996 181.761 261.636 173.907 264.527 160.869L264.6 160.539C267.314 148.172 272.43 136.461 279.656 126.075L280.775 124.463C282.126 122.519 284.018 121.015 286.214 120.14C288.411 119.264 290.816 119.055 293.13 119.538C297.413 120.423 299.712 121.706 299.965 123.352C300.461 126.58 290.895 165.603 286.759 182.231C286.482 183.346 285.84 184.336 284.936 185.043C284.032 185.75 282.918 186.134 281.771 186.132Z" fill="#2F2E41"/>
<path d="M248.983 181.122C248.734 181.122 248.487 181.084 248.25 181.008L245.165 180.019C244.846 179.916 244.552 179.748 244.301 179.526C244.051 179.303 243.85 179.03 243.71 178.725C243.571 178.42 243.497 178.089 243.492 177.753C243.488 177.417 243.553 177.085 243.684 176.776L260.054 138.264C263.19 130.917 268.674 124.824 275.643 120.942C275.744 120.886 275.856 120.852 275.97 120.841C276.085 120.831 276.201 120.844 276.311 120.88C276.411 120.912 276.504 120.965 276.583 121.035C276.663 121.105 276.726 121.191 276.77 121.288C278.695 125.533 268.217 145.623 259.797 161.765C255.486 170.031 251.762 177.17 251.338 179.205C251.225 179.747 250.929 180.234 250.5 180.583C250.071 180.932 249.536 181.123 248.983 181.122Z" fill="#2F2E41"/>
<path d="M299.627 189.898C300.202 189.468 300.676 188.917 301.015 188.283C301.355 187.649 301.551 186.949 301.591 186.231C301.632 185.513 301.514 184.795 301.247 184.127C300.981 183.46 300.571 182.859 300.048 182.367L299.918 136.217L289.392 137.987L292.835 182.817C292.069 183.753 291.672 184.939 291.719 186.149C291.767 187.358 292.256 188.509 293.093 189.382C293.93 190.254 295.058 190.789 296.262 190.884C297.466 190.979 298.663 190.628 299.627 189.898Z" fill="#FFB8B8"/>
<path d="M291.056 147.666C290.535 147.666 290.033 147.467 289.652 147.11C289.271 146.752 289.04 146.263 289.006 145.741L287.781 127.12C287.666 125.328 288.264 123.564 289.444 122.213C290.625 120.863 292.292 120.037 294.079 119.917C294.996 119.856 295.917 119.984 296.783 120.292C297.65 120.601 298.445 121.083 299.119 121.71C299.793 122.337 300.332 123.096 300.704 123.939C301.075 124.782 301.271 125.692 301.279 126.614L301.445 145.489C301.449 146.034 301.238 146.559 300.857 146.948C300.477 147.338 299.958 147.561 299.414 147.568L291.081 147.666L291.056 147.666Z" fill="#2F2E41"/>
<path d="M283.525 115.2C289.722 115.2 294.746 110.165 294.746 103.953C294.746 97.7419 289.722 92.7065 283.525 92.7065C277.328 92.7065 272.305 97.7419 272.305 103.953C272.305 110.165 277.328 115.2 283.525 115.2Z" fill="#FFB8B8"/>
<path d="M292.855 111.823C293.692 109.154 294.46 106.006 292.804 103.754C291.611 102.13 289.468 101.502 287.459 101.412C285.449 101.322 283.434 101.664 281.429 101.504C279.424 101.344 277.304 100.551 276.286 98.8124C274.965 96.558 276.084 93.4529 278.207 91.9347C280.33 90.4165 283.136 90.2045 285.72 90.5581C288.99 90.9473 292.064 92.3257 294.534 94.5098C296.936 96.732 298.501 99.9352 298.432 103.211C298.362 106.487 296.529 109.749 293.608 111.22" fill="#2F2E41"/>
<path d="M290.057 87.2479C287.371 86.4185 286.132 82.8589 287.333 80.3119C288.535 77.7649 291.605 76.4312 294.393 76.786C297.182 77.1407 299.639 78.9338 301.333 81.1813C303.028 83.4288 304.05 86.108 304.902 88.7927C305.754 91.4774 306.463 94.2201 307.627 96.7846C309.473 100.725 312.322 104.108 315.886 106.595C319.451 109.083 323.606 110.586 327.933 110.954C329.82 111.091 331.777 110.992 333.496 110.202C335.215 109.412 336.657 107.818 336.85 105.933C337.828 112.631 333.94 119.751 327.783 122.534C321.626 125.318 313.728 123.527 309.366 118.358C305.103 113.307 304.443 106.175 304.546 99.5599C304.574 97.7458 304.64 95.8975 304.14 94.1538C303.64 92.4102 302.457 90.7522 300.734 90.1984C299.343 89.7516 297.837 90.0737 296.411 90.3905C294.985 90.7072 293.471 91.0121 292.091 90.5346C290.71 90.0571 289.599 88.4835 290.155 87.13" fill="#2F2E41"/>
<path d="M334.449 272H213.842C213.721 272 213.604 271.952 213.519 271.866C213.433 271.78 213.385 271.664 213.385 271.542C213.385 271.421 213.433 271.304 213.519 271.218C213.604 271.132 213.721 271.084 213.842 271.084H334.449C334.57 271.084 334.687 271.132 334.772 271.218C334.858 271.304 334.906 271.421 334.906 271.542C334.906 271.664 334.858 271.78 334.772 271.866C334.687 271.952 334.57 272 334.449 272Z" fill="#CCCCCC"/>
</g>
<defs>
<clipPath id="clip0_9_262">
<rect width="337" height="272" fill="white"/>
</clipPath>
</defs>
</svg>
