<svg width="336" height="214" viewBox="0 0 336 214" fill="none" xmlns="http://www.w3.org/2000/svg">
<g clip-path="url(#clip0_9_317)">
<path d="M71.2988 50.3958L84.0063 67.7315C84.0063 67.7315 94.8405 72.2845 107.503 81.4261L104.472 86.1548C104.472 86.1548 83.5717 77.602 78.2231 73.9882L68.4563 58.6865L71.2988 50.3958Z" fill="#A0616A"/>
<path d="M115.102 89.8227C116.315 88.0492 114.875 84.9568 111.886 82.9156C108.897 80.8745 105.491 80.6575 104.278 82.4311C103.065 84.2046 104.505 87.297 107.494 89.3382C110.483 91.3793 113.889 91.5963 115.102 89.8227Z" fill="#A0616A"/>
<path d="M65.0876 35.5965L69.2463 34.4177C69.2463 34.4177 71.667 34.4224 73.0327 36.7985C74.3984 39.1747 84.0678 60.3611 83.6095 61.1818C83.1512 62.0026 82.5114 62.1839 83.3326 62.642C84.1539 63.1 84.9058 62.8678 84.3461 63.5541C83.7863 64.2404 84.5599 65.7482 84.5599 65.7482L73.8923 73.6137L65.0876 35.5965Z" fill="#880720"/>
<path d="M48.9532 209.809L54.0267 209.808L56.4402 190.251L48.9521 190.252L48.9532 209.809Z" fill="#A0616A"/>
<path d="M66.3357 209.694C66.4936 209.959 66.577 210.818 66.577 211.127C66.577 212.077 65.8061 212.848 64.855 212.848H49.143C48.4942 212.848 47.9683 212.322 47.9683 211.674V211.02C47.9683 211.02 47.191 209.055 48.7913 206.634C48.7913 206.634 50.7801 208.53 53.7521 205.56L54.6284 203.973L60.9723 208.61L64.4886 209.042C65.2579 209.137 65.94 209.028 66.3357 209.694Z" fill="#2F2E41"/>
<path d="M67.3159 204.868L72.3194 205.707L77.9419 186.82L70.5572 185.581L67.3159 204.868Z" fill="#A0616A"/>
<path d="M84.4771 207.632C84.5888 207.92 84.5287 208.781 84.4774 209.085C84.3199 210.023 83.4318 210.655 82.494 210.497L66.9991 207.896C66.3593 207.788 65.9277 207.183 66.0352 206.544L66.1436 205.899C66.1436 205.899 65.7028 203.833 67.6825 201.709C67.6825 201.709 69.3295 203.909 72.7527 201.472L73.88 200.052L79.3675 205.675L82.7635 206.684C83.5065 206.905 84.1972 206.91 84.4771 207.632Z" fill="#2F2E41"/>
<path d="M77.7162 104.518C77.7162 104.518 84.5327 112.493 84.5327 119.803C84.5327 127.114 84.699 150.079 84.699 150.079C84.699 150.079 80.7088 185.931 79.7113 188.922C78.7137 191.913 78.2149 196.897 78.2149 196.897L68.572 194.571C68.572 194.571 67.242 160.843 71.2321 152.867L61.5892 125.619L58.2641 202.712H47.0699C47.0699 202.712 41.3059 162.172 44.2985 151.538C44.2985 151.538 37.6482 110.997 39.3108 108.671C40.9734 106.345 77.7162 104.518 77.7162 104.518Z" fill="#2F2E41"/>
<path d="M52.9438 25.0977L61.9217 25.7623L64.9143 30.7468C64.9143 30.7468 71.8971 33.7375 72.8947 38.0574C73.8922 42.3773 74.2247 92.887 74.2247 92.887L79.2124 100.198L78.8799 106.511L38.9782 108.505V102.435L35.3206 95.2131C35.3206 95.2131 39.3107 37.3928 40.3083 37.0605C41.3058 36.7282 48.9536 31.4114 48.9536 31.4114L52.9438 25.0977Z" fill="#880720"/>
<path d="M57.0071 23.8611C63.251 23.8611 68.3126 18.8027 68.3126 12.5629C68.3126 6.32304 63.251 1.26465 57.0071 1.26465C50.7633 1.26465 45.7017 6.32304 45.7017 12.5629C45.7017 18.8027 50.7633 23.8611 57.0071 23.8611Z" fill="#A0616A"/>
<path d="M66.0376 3.47537C65.4623 1.84487 63.8664 0.855685 62.1368 0.894215C62.0634 0.895829 61.9902 0.895152 61.9177 0.892174C61.0467 0.856584 60.2106 0.559279 59.3565 0.384866C57.7648 0.0597765 56.0864 0.168617 54.55 0.696534C54.0724 0.860639 53.5942 1.067 53.0892 1.06705C52.5842 1.06712 52.0341 0.790386 51.911 0.30097C51.8817 0.744079 51.8526 1.18716 51.8234 1.63025C51.659 1.27162 51.4948 0.912977 51.3304 0.554334L51.0013 1.98456L49.9469 0.789257C50.0412 1.31611 49.7338 1.84711 49.3177 2.18395C48.9016 2.5208 48.3876 2.70713 47.8949 2.91699C45.7685 3.8228 43.7719 5.42653 43.1592 7.65396C42.7721 9.06123 42.9746 10.5548 43.1797 11.9998C43.361 13.2772 43.5582 14.5988 44.253 15.6862C44.6984 16.3833 45.3404 16.9699 45.6116 17.7514C45.8644 18.4797 45.7686 19.3137 46.1283 19.9957C46.4895 20.6808 47.2351 21.0684 47.9648 21.3287C48.6945 21.5891 49.4703 21.7732 50.0987 22.2262C50.7271 22.6793 51.4565 23.9843 52.8257 23.9141L53.2676 23.0844C53.7222 22.7142 52.0398 23.0077 52.0223 22.422C52.0047 21.8362 54.0465 21.4743 53.7572 20.9646C53.3134 20.1831 52.713 19.5029 52.2129 18.7559C51.628 17.8824 51.1681 16.8618 51.3699 15.7957C51.4484 15.381 51.6426 14.9892 51.9385 14.688C52.7913 13.8195 53.7423 14.2013 54.6664 14.3255C55.3034 14.4112 56.0641 14.3122 56.3949 13.7615C56.7818 13.1171 56.3506 12.2974 56.4033 11.5478C56.4592 10.7535 57.0614 10.1022 57.7167 9.64939C58.3721 9.19656 59.1162 8.86665 59.7057 8.33107C60.2952 7.79544 60.7152 6.95868 60.4582 6.20501C63.2527 5.04231 63.6805 4.93234 66.6233 5.6414C66.483 4.90597 66.2866 4.18137 66.0376 3.47537Z" fill="#2F2E41"/>
<path d="M18.3096 147.979V113.685C18.3096 112.744 18.7107 111.844 19.4103 111.215C20.1098 110.586 21.0475 110.281 21.9838 110.38C30.6563 109.214 38.8243 109.768 46.2268 112.934C47.0653 112.934 47.7475 113.616 47.7475 114.454V148.868C47.7475 149.706 47.0653 150.388 46.2268 150.388C38.0784 148.478 29.4839 148.975 20.7199 150.388C19.3908 150.388 18.3096 149.307 18.3096 147.979Z" fill="#E6E6E6"/>
<path d="M18.3096 151.032V116.375C18.3096 114.543 19.8014 113.052 21.6351 113.052C29.9281 110.883 38.1255 110.88 46.2268 113.052C47.0653 113.052 47.7475 113.734 47.7475 114.571V148.633C47.7475 149.47 47.0673 150.151 46.2306 150.153C38.2425 148.764 29.6857 150.116 20.7199 153.44C19.3908 153.44 18.3096 152.36 18.3096 151.032Z" fill="#F2F2F2"/>
<path d="M37.4595 127.374H29.7048C26.9198 127.374 24.6541 125.11 24.6541 122.326C24.6541 119.543 26.9198 117.279 29.7048 117.279H37.4595C40.2447 117.279 42.5105 119.543 42.5105 122.326C42.5105 125.11 40.2447 127.374 37.4595 127.374Z" fill="#E6E6E6"/>
<path d="M44.5666 59.3042L44.2702 77.1967C44.2702 77.1967 43.3228 91.141 40.9702 106.833L35.3623 107.191C35.3623 107.191 36.0523 82.6892 35.8009 76.2419L36.1975 61.9221L44.5666 59.3042Z" fill="#A0616A"/>
<path d="M38.6959 117.924C40.8441 117.851 42.4859 114.861 42.3629 111.245C42.2399 107.63 40.3987 104.758 38.2505 104.831C36.1023 104.903 34.4605 107.894 34.5835 111.509C34.7065 115.125 36.5477 117.997 38.6959 117.924Z" fill="#A0616A"/>
<path d="M44.4793 36.5249L40.1595 36.6821C40.1595 36.6821 37.8577 37.431 37.2899 40.1118C36.7221 42.7926 32.7422 70.5367 33.431 71.1767C34.1198 71.8167 34.7844 71.7925 34.144 72.4808C33.5036 73.1692 32.7167 73.1795 33.4606 73.6604C34.2045 74.1412 33.9327 75.8137 33.9327 75.8137L45.8803 74.9678L44.4793 36.5249Z" fill="#880720"/>
<path d="M329.491 196.382H214.555C213.888 196.382 213.227 196.28 212.592 196.079L212.524 196.052C176.535 178.177 145.679 168.422 118.192 166.227L118.088 166.206C115.369 165.347 113.542 162.854 113.542 160.005V6.51034C113.542 4.41442 114.512 2.50182 116.204 1.26319C117.896 0.024573 120.013 -0.322986 122.014 0.308498L212.876 29.03C213.42 29.202 213.985 29.2891 214.555 29.2891H329.491C333.08 29.2891 336 32.2072 336 35.7937V189.877C336 193.464 333.08 196.382 329.491 196.382ZM212.91 195.193C213.443 195.357 213.996 195.441 214.555 195.441H329.491C332.561 195.441 335.058 192.945 335.058 189.877V35.7937C335.058 32.7259 332.561 30.23 329.491 30.23H214.555C213.888 30.23 213.228 30.1283 212.592 29.9273L121.73 1.20577C120.019 0.664558 118.208 0.962729 116.761 2.02217C115.314 3.08185 114.484 4.71765 114.484 6.51034V160.005C114.484 162.425 116.024 164.543 118.322 165.293C145.908 167.506 176.849 177.286 212.91 195.193Z" fill="#3F3D56"/>
<path d="M217.624 189.412C248.962 178.329 283.923 179.601 321.064 188.306C325.727 189.399 330.197 185.891 330.197 181.105V40.8552C330.197 37.4494 327.874 34.4716 324.563 33.6626C285.383 24.0876 248.786 22.3259 216.534 33.7038C214.172 34.5373 211.549 34.0857 209.555 32.569C182.378 11.8942 154.563 1.5281 125.918 4.60607C122.171 5.00873 119.345 8.20022 119.345 11.9667V153.746C119.345 157.542 122.219 160.716 125.997 161.109C156.829 164.313 185.16 174.025 211.508 188.898C213.374 189.952 215.604 190.126 217.624 189.412Z" fill="#F2F2F2"/>
<path d="M216.618 181.547C214.483 181.547 212.381 180.96 210.529 179.811C188.401 166.077 164.293 158.054 138.876 155.965C132.917 155.474 128.249 150.395 128.249 144.4V23.2978C128.249 17.0822 133.072 11.9892 139.23 11.7032C157.736 10.8408 180.206 19.0883 209.94 37.649C212.455 39.2187 215.514 39.6848 218.332 38.9295C246.591 31.3489 277.223 31.1274 311.981 38.2525C317.377 39.3588 321.293 44.1451 321.293 49.6337V167.841C321.293 171.408 319.688 174.721 316.889 176.931C314.069 179.157 310.441 179.955 306.933 179.12C274.053 171.299 245.819 171.865 220.616 180.849C219.307 181.316 217.956 181.547 216.618 181.547ZM141.872 12.5835C140.996 12.5835 140.132 12.6032 139.274 12.6432C133.62 12.9057 129.19 17.5857 129.19 23.2978V144.4C129.19 149.909 133.479 154.577 138.953 155.026C164.521 157.129 188.769 165.198 211.025 179.011C213.795 180.731 217.175 181.077 220.299 179.963C245.678 170.915 274.088 170.34 307.151 178.205C310.377 178.972 313.713 178.239 316.305 176.192C318.877 174.162 320.352 171.118 320.352 167.841V49.6337C320.352 44.5899 316.752 40.1911 311.791 39.1741C277.181 32.0787 246.69 32.296 218.576 39.8382C215.506 40.6611 212.177 40.1545 209.441 38.4471C181.263 20.8576 159.684 12.5835 141.872 12.5835Z" fill="white"/>
<path d="M214.48 39.6322L213.538 39.6409L214.848 181.331L215.79 181.323L214.48 39.6322Z" fill="white"/>
<path d="M137.427 30.2817L137.131 31.1748L203.053 52.9731L203.349 52.0801L137.427 30.2817Z" fill="#3F3D56"/>
<path d="M137.427 47.7204L137.131 48.6135L203.053 70.4119L203.349 69.5188L137.427 47.7204Z" fill="#3F3D56"/>
<path d="M137.427 65.1592L137.131 66.0522L203.053 87.8506L203.349 86.9575L137.427 65.1592Z" fill="#3F3D56"/>
<path d="M137.427 82.5976L137.131 83.4907L203.053 105.289L203.349 104.396L137.427 82.5976Z" fill="#3F3D56"/>
<path d="M309.354 53.0251H230.345V53.9661H309.354V53.0251Z" fill="#3F3D56"/>
<path d="M309.354 69.4949H230.345V70.4358H309.354V69.4949Z" fill="#3F3D56"/>
<path d="M309.354 85.9646H230.345V86.9055H309.354V85.9646Z" fill="#3F3D56"/>
<path d="M309.354 102.435H230.345V103.376H309.354V102.435Z" fill="#3F3D56"/>
<path d="M309.354 118.904H230.345V119.845H309.354V118.904Z" fill="#3F3D56"/>
<path d="M309.354 135.375H230.345V136.315H309.354V135.375Z" fill="#3F3D56"/>
<path d="M25.5428 205.845C24.5703 205.906 24.0328 204.699 24.7686 203.995L24.8418 203.704C24.8321 203.681 24.8224 203.658 24.8127 203.634C23.8292 201.291 20.4959 201.307 19.5207 203.654C18.6552 205.737 17.5532 207.824 17.2819 210.027C17.1602 210.999 17.215 211.99 17.4309 212.944C15.4028 208.517 14.3356 203.682 14.3356 198.82C14.3356 197.599 14.4025 196.377 14.5393 195.159C14.6518 194.162 14.8069 193.172 15.0076 192.19C16.093 186.885 18.4434 181.831 21.8336 177.611C23.4634 176.721 24.8225 175.329 25.6434 173.661C25.9384 173.059 26.1694 172.412 26.2789 171.752C26.0934 171.777 25.5796 168.954 25.7195 168.781C25.461 168.389 24.9984 168.194 24.7161 167.811C23.3121 165.909 21.3778 166.241 20.368 168.826C18.2109 169.914 18.19 171.719 19.5136 173.454C20.3557 174.558 20.4714 176.052 21.2103 177.234C21.1343 177.331 21.0552 177.425 20.9792 177.523C19.5852 179.309 18.3796 181.23 17.3633 183.248C17.6505 181.005 17.2264 178.304 16.5035 176.563C15.6805 174.578 14.138 172.907 12.7796 171.192C11.1479 169.132 7.80207 170.031 7.5146 172.643C7.51182 172.668 7.50911 172.693 7.50645 172.719C7.70822 172.832 7.90589 172.953 8.09897 173.081C9.2003 173.809 8.81968 175.515 7.51473 175.716L7.48518 175.721C7.55816 176.447 7.68282 177.167 7.86524 177.875C6.12259 184.61 9.88484 187.063 15.2568 187.173C15.3754 187.234 15.491 187.295 15.6096 187.353C15.0653 188.884 14.6305 190.455 14.3082 192.047C14.0193 193.454 13.8187 194.876 13.7062 196.304C13.5663 198.106 13.5785 199.917 13.7305 201.716L13.7214 201.652C13.3352 199.671 12.2589 197.821 10.696 196.538C8.36781 194.627 5.07852 193.923 2.56682 192.387C1.35776 191.647 -0.191564 192.603 0.0194491 194.004L0.0297211 194.071C0.403706 194.223 0.768562 194.399 1.12127 194.597C1.32304 194.71 1.5207 194.831 1.71379 194.959C2.81512 195.687 2.4345 197.393 1.12954 197.594L1.09997 197.599C1.07869 197.602 1.06044 197.605 1.03919 197.608C1.68075 199.13 2.57465 200.543 3.69358 201.762C4.78321 207.641 9.46321 208.199 14.4693 206.487H14.4724C15.0197 208.869 15.8194 211.197 16.8471 213.415H25.3302C25.3607 213.321 25.388 213.223 25.4154 213.129C24.6309 213.178 23.8404 213.132 23.0681 212.989C23.6975 212.218 24.3268 211.44 24.9563 210.668C24.9715 210.653 24.9836 210.638 24.9958 210.622C25.315 210.227 25.6373 209.835 25.9566 209.44L25.9568 209.44C25.9767 208.227 25.831 207.018 25.5428 205.845Z" fill="#F2F2F2"/>
<path d="M120.425 213.44C120.425 213.751 120.175 214 119.864 214H0.62612C0.315434 214 0.065918 213.751 0.065918 213.44C0.065918 213.13 0.315434 212.88 0.62612 212.88H119.864C120.175 212.88 120.425 213.13 120.425 213.44Z" fill="#CCCCCC"/>
<path d="M312.673 183.679C318.653 183.679 323.5 178.835 323.5 172.859C323.5 166.883 318.653 162.038 312.673 162.038C306.693 162.038 301.845 166.883 301.845 172.859C301.845 178.835 306.693 183.679 312.673 183.679Z" fill="#880720"/>
<path d="M317.743 172.451L311.025 168.574C310.711 168.393 310.319 168.62 310.319 168.982V172.388H308.304C308.044 172.388 307.833 172.599 307.833 172.859C307.833 173.119 308.044 173.329 308.304 173.329H310.319V176.735C310.319 177.098 310.711 177.324 311.025 177.143L317.743 173.266C318.057 173.085 318.057 172.632 317.743 172.451Z" fill="white"/>
<path d="M158.489 142.358C158.911 137.536 160.914 132.929 164.12 129.304C167.244 125.773 171.513 123.35 176.116 122.364C178.686 121.813 181.348 121.705 183.951 122.076C184.574 122.165 184.557 123.154 183.927 123.064C179.498 122.432 174.92 123.204 170.94 125.248C166.861 127.343 163.595 130.75 161.578 134.859C160.425 137.209 159.706 139.774 159.478 142.381C159.422 143.012 158.434 142.993 158.489 142.358Z" fill="white"/>
<path d="M182.855 118.112L190.463 121.863C190.74 121.999 190.785 122.45 190.55 122.644L183.348 128.594C182.86 128.997 182.174 128.285 182.665 127.88L189.868 121.929L189.955 122.711L182.346 118.959C181.775 118.677 182.288 117.832 182.855 118.112Z" fill="white"/>
</g>
<defs>
<clipPath id="clip0_9_317">
<rect width="336" height="214" fill="white"/>
</clipPath>
</defs>
</svg>
