<svg width="682" height="555" viewBox="0 0 682 555" fill="none" xmlns="http://www.w3.org/2000/svg">
<g clip-path="url(#clip0_6_6)">
<path d="M681.618 55.489V498.874C681.618 529.523 653.772 554.363 619.412 554.363H62.206C27.846 554.363 0 529.524 0 498.874V55.489C0 24.839 27.846 0 62.206 0H619.412C653.772 0 681.618 24.839 681.618 55.489Z" fill="#F2F2F2"/>
<path d="M227.306 552.9L267.186 544.255L313.396 534.229C313.396 534.229 315.896 541.884 319.408 552.9H227.306Z" fill="#2F2E41"/>
<path d="M328.262 547.934C328.262 547.934 327.889 549.934 327.123 552.9H140.94C138.886 546.645 137.971 540.2 140.417 534.883C140.828 533.953 141.349 533.076 141.967 532.269C142.425 531.635 142.937 531.041 143.498 530.495C147.157 526.873 149.398 519.069 150.742 510.181C152.357 498.028 153.025 485.768 152.742 473.512C152.761 473.493 152.761 473.493 152.742 473.493C152.705 470.599 152.63 468.863 152.63 468.863C152.63 468.863 151.92 458.163 151.118 441.996C151.137 441.996 151.118 441.977 151.118 441.977C148.918 398.344 145.928 314.811 153.676 292.668C154.17 290.801 155.172 289.108 156.57 287.776C167 280.247 178.098 273.691 189.726 268.189C190.398 267.889 190.753 267.722 190.753 267.722L216.313 267.237L248.053 261.637L270.103 257.604C270.103 257.604 271.727 257.716 274.267 258.071C282.706 259.229 301.267 263.019 303.879 273.997C303.879 274.016 303.898 274.034 303.898 274.053C304.228 275.492 304.285 276.981 304.066 278.441C301.566 296.741 319.227 409.117 324.604 414.741C329.981 420.365 328.562 440.899 315.269 453.949C312.927 456.363 311.221 459.32 310.303 462.556C305.281 478.706 313.16 505.088 320.871 517.429C326.473 526.572 329.059 537.244 328.264 547.937L328.262 547.934Z" fill="#3F3D56"/>
<path d="M429.939 188.668L429.404 169.131L428.689 142.931L407.802 141.966L404.878 167.998L402.153 192.188L429.939 188.668Z" fill="#A0616A"/>
<path d="M215.997 271.393L245.297 302.84C245.297 302.84 369.453 322.892 370.284 312.363C371.115 301.834 362.937 298.784 376.342 299.72C389.747 300.656 392.969 310.18 395.012 301.071C397.055 291.962 385.812 291.739 398.829 290.447C411.846 289.155 440.273 175.524 440.273 175.524L394.927 182.837C394.927 182.837 386.113 237.779 380.587 244.8C375.061 251.821 369.515 256.86 366.105 257.163C362.695 257.466 215.997 271.393 215.997 271.393Z" fill="#3F3D56"/>
<path d="M232.801 230.737C256.575 230.737 275.847 211.465 275.847 187.691C275.847 163.917 256.575 144.645 232.801 144.645C209.027 144.645 189.755 163.917 189.755 187.691C189.755 211.465 209.027 230.737 232.801 230.737Z" fill="#A0616A"/>
<path d="M199.256 224.765L216.322 228.032C216.322 228.032 200.452 202.416 201.385 190.691C202.318 178.966 215.085 174.765 215.085 174.765C215.085 174.765 222.161 176.296 229.611 177.155C230.503 174.643 231.661 172.233 233.065 169.967C233.341 172.893 234.637 175.629 236.725 177.697C239.455 177.932 242.204 177.614 244.809 176.764C247.759 175.42 247.703 173.086 246.732 170.901C260.94 171.592 274.402 178.501 274.402 178.501C274.831 172.769 274.612 167.007 273.749 161.324C273.338 161.212 272.928 161.081 272.517 160.951C269.972 160.146 267.519 159.076 265.198 157.758C267.781 157.415 270.194 156.28 272.106 154.509C270.538 149.916 268.036 145.939 264.096 143.997C260.295 142.138 256.139 141.118 251.91 141.005C247.68 140.892 243.476 141.689 239.581 143.343C239.581 143.343 248.711 136.678 245.35 133.952C245.126 134.176 244.902 134.381 244.659 134.587C244.342 134.848 243.987 135.128 243.651 135.387C241.579 137.067 238.479 134.696 238.068 132.157C238.024 131.836 237.961 131.519 237.881 131.205C237.825 130.944 237.75 130.682 237.676 130.439C237.613 130.224 237.538 130.012 237.452 129.804C231.235 128.31 212.433 134.378 205.208 147.746C205.212 147.748 154.708 172.02 199.256 224.765Z" fill="#3F3D56"/>
<path d="M178.618 552.9H154.495L153.673 551.537L141.965 532.269L135.506 521.626L150.741 510.186L157.911 504.809L173.724 541.533L178.618 552.9Z" fill="#A0616A"/>
<path d="M189.734 268.192L249.928 407.27L274.274 258.07C271.735 257.715 270.11 257.603 270.11 257.603L259.749 237.478L200.395 240.559L190.761 267.722C190.761 267.722 190.406 267.893 189.734 268.192Z" fill="#890620"/>
<path d="M268.927 552.9H221.527L251.793 467.015L267.193 544.256L268.927 552.9Z" fill="#890620"/>
<path opacity="0.5" d="M569.522 289.345H408.509C393.739 289.345 381.765 301.319 381.765 316.089V390.102C381.765 404.872 393.739 416.846 408.509 416.846H569.522C584.292 416.846 596.266 404.872 596.266 390.102V316.089C596.266 301.319 584.292 289.345 569.522 289.345Z" fill="white"/>
<path d="M557.147 418.307H420.883C410.124 418.295 399.809 414.015 392.202 406.407C384.594 398.8 380.314 388.485 380.302 377.726V328.466C380.314 317.707 384.594 307.392 392.202 299.785C399.809 292.177 410.124 287.897 420.883 287.885H557.147C567.906 287.897 578.221 292.177 585.829 299.784C593.437 307.392 597.717 317.707 597.729 328.466V377.726C597.717 388.485 593.437 398.8 585.829 406.407C578.222 414.015 567.907 418.295 557.148 418.307H557.147ZM420.883 290.807C410.899 290.819 401.327 294.79 394.268 301.85C387.209 308.91 383.238 318.482 383.227 328.466V377.726C383.239 387.709 387.21 397.281 394.269 404.34C401.328 411.399 410.9 415.37 420.883 415.382H557.147C567.13 415.37 576.701 411.399 583.76 404.34C590.819 397.28 594.79 387.709 594.802 377.726V328.466C594.79 318.483 590.819 308.911 583.76 301.852C576.701 294.793 567.129 290.822 557.146 290.81L420.883 290.807Z" fill="white"/>
<path d="M488.84 389.218C506.095 389.218 520.083 375.23 520.083 357.975C520.083 340.72 506.095 326.732 488.84 326.732C471.585 326.732 457.597 340.72 457.597 357.975C457.597 375.23 471.585 389.218 488.84 389.218Z" fill="#A0616A"/>
<path d="M495.691 389.04C491.855 380.487 512.638 362.74 499.322 361.84C499.322 361.84 490.568 346.493 485.01 350.607C478.574 355.371 469.196 346.718 463.686 340.929C464.858 339.983 465.91 338.897 466.818 337.695C465.068 338.016 463.296 338.202 461.518 338.251C460.858 337.274 460.396 336.176 460.159 335.02C459.9 333.927 459.982 332.78 460.394 331.735C460.806 330.69 461.529 329.795 462.464 329.173C464.483 328.048 467.064 328.735 469.22 327.928C469.49 327.797 469.723 327.602 469.901 327.36C470.079 327.119 470.195 326.837 470.24 326.541C470.402 325.844 470.716 325.19 471.159 324.628C471.602 324.066 472.164 323.608 472.804 323.288C473.444 322.967 474.147 322.792 474.863 322.774C475.579 322.756 476.29 322.897 476.945 323.185C477.195 323.327 477.476 323.405 477.764 323.413C479.268 323.317 480.756 323.043 482.195 322.595C480.58 321.84 479.025 320.963 477.543 319.971C477.243 319.764 476.934 319.558 476.636 319.339C477.977 318.248 479.539 317.46 481.213 317.028C482.887 316.597 484.635 316.532 486.336 316.839C489.903 317.533 493.341 318.774 496.529 320.519L502.184 323.274C506.245 325.061 510.106 327.274 513.701 329.874C517.452 332.822 520.505 336.562 522.643 340.827C524.78 345.092 525.95 349.776 526.068 354.545C526.235 364.068 518.095 390.14 495.691 389.04Z" fill="#2F2E41"/>
<path opacity="0.5" d="M315.527 413.698H154.514C139.744 413.698 127.77 425.672 127.77 440.442V514.455C127.77 529.225 139.744 541.199 154.514 541.199H315.527C330.297 541.199 342.271 529.225 342.271 514.455V440.442C342.271 425.672 330.297 413.698 315.527 413.698Z" fill="white"/>
<path d="M303.155 542.662H166.889C156.13 542.65 145.815 538.37 138.207 530.763C130.6 523.155 126.32 512.84 126.308 502.081V452.817C126.32 442.058 130.599 431.743 138.207 424.135C145.815 416.527 156.13 412.247 166.889 412.235H303.155C313.914 412.247 324.229 416.527 331.837 424.134C339.444 431.742 343.724 442.057 343.736 452.816V502.079C343.724 512.838 339.445 523.154 331.837 530.762C324.23 538.37 313.914 542.65 303.155 542.662ZM166.891 415.162C156.908 415.174 147.336 419.145 140.277 426.204C133.218 433.263 129.247 442.835 129.235 452.818V502.081C129.247 512.064 133.218 521.636 140.277 528.695C147.336 535.754 156.908 539.725 166.891 539.737H303.155C313.138 539.725 322.71 535.754 329.769 528.695C336.828 521.636 340.799 512.064 340.811 502.081V452.817C340.799 442.834 336.828 433.262 329.769 426.203C322.71 419.144 313.138 415.173 303.155 415.161L166.891 415.162Z" fill="white"/>
<path d="M237.113 518.11C254.645 518.11 268.857 503.898 268.857 486.366C268.857 468.834 254.645 454.622 237.113 454.622C219.581 454.622 205.369 468.834 205.369 486.366C205.369 503.898 219.581 518.11 237.113 518.11Z" fill="#FFB6B6"/>
<path d="M216.434 494.523C216.039 494.39 215.62 494.344 215.206 494.387C214.792 494.43 214.391 494.561 214.032 494.772C213.673 494.983 213.363 495.268 213.124 495.609C212.884 495.95 212.721 496.338 212.644 496.748C212.539 497.589 212.607 498.442 212.844 499.255C213.08 500.069 213.481 500.826 214.02 501.479C215.103 502.777 216.073 504.165 216.92 505.628C217.334 506.368 217.528 507.211 217.479 508.057C217.43 508.904 217.14 509.719 216.644 510.406C216.103 510.932 215.424 511.294 214.685 511.45C213.947 511.606 213.179 511.549 212.472 511.286C211.064 510.736 209.819 509.836 208.854 508.672C202.785 502.088 196.454 491.157 199.554 482.757C199.811 481.859 199.912 480.924 199.854 479.992C199.913 478.923 200.111 477.313 199.105 476.95C196.296 475.936 204.178 459.514 216.345 455.942C215.752 450.335 245.022 442.27 243.425 449.309C243.138 450.573 245.964 449.886 247.259 449.956C257.19 450.493 268.405 452.989 267.501 464.499C267.151 468.956 268.995 467.928 270.475 472.147C268.169 473.522 267.412 476.537 265.634 474.525C263.856 472.513 262.334 469.993 259.789 469.148C257.076 468.248 254.131 469.594 251.817 471.272C249.503 472.95 247.379 475.035 244.659 475.914C241.608 476.9 238.281 476.214 235.1 476.614C230.561 477.393 226.463 479.801 223.573 483.386C220.724 486.95 218.32 490.848 216.413 494.993" fill="#2F2E41"/>
<path d="M198.584 287.432L155.642 289.299C155.642 289.299 92.162 397.589 99.63 405.057C107.098 412.525 114.73 408.286 105.312 417.874C95.894 427.462 86.561 423.728 92.162 431.196C97.763 438.664 105.231 430.26 97.762 440.996C90.293 451.732 150.973 552.896 150.973 552.896L177.112 539.827C177.112 539.827 151.676 472.988 149.924 464.227C148.172 455.466 147.941 447.976 149.924 445.186C151.907 442.396 198.584 287.432 198.584 287.432Z" fill="#3F3D56"/>
<path d="M418.503 321.467C424.063 321.467 428.571 316.959 428.571 311.399C428.571 305.839 424.063 301.331 418.503 301.331C412.943 301.331 408.435 305.839 408.435 311.399C408.435 316.959 412.943 321.467 418.503 321.467Z" fill="#890620"/>
<path d="M417.129 316.639C416.954 316.64 416.782 316.599 416.626 316.522C416.47 316.444 416.334 316.331 416.229 316.191L413.482 312.529C413.394 312.411 413.33 312.277 413.293 312.135C413.257 311.992 413.248 311.844 413.269 311.699C413.29 311.553 413.339 311.413 413.414 311.286C413.489 311.16 413.588 311.049 413.706 310.961C413.824 310.873 413.958 310.808 414.1 310.772C414.242 310.735 414.391 310.727 414.536 310.748C414.682 310.769 414.822 310.818 414.949 310.893C415.075 310.968 415.186 311.067 415.274 311.185L417.074 313.585L421.689 306.662C421.855 306.418 422.111 306.25 422.4 306.193C422.69 306.137 422.99 306.197 423.236 306.361C423.481 306.524 423.652 306.778 423.712 307.067C423.771 307.356 423.714 307.657 423.553 307.904L418.06 316.144C417.961 316.293 417.827 316.417 417.671 316.504C417.514 316.591 417.339 316.639 417.16 316.644L417.129 316.639Z" fill="white"/>
<path d="M172.77 447.259C178.33 447.259 182.838 442.751 182.838 437.191C182.838 431.631 178.33 427.123 172.77 427.123C167.21 427.123 162.702 431.631 162.702 437.191C162.702 442.751 167.21 447.259 172.77 447.259Z" fill="#890620"/>
<path d="M171.395 442.431C171.22 442.432 171.048 442.392 170.892 442.314C170.736 442.236 170.6 442.123 170.495 441.983L167.748 438.321C167.66 438.203 167.596 438.069 167.559 437.927C167.523 437.785 167.514 437.636 167.535 437.491C167.556 437.345 167.605 437.205 167.68 437.078C167.755 436.952 167.854 436.841 167.972 436.753C168.09 436.665 168.224 436.601 168.366 436.564C168.509 436.528 168.657 436.519 168.802 436.54C168.948 436.561 169.088 436.61 169.215 436.685C169.341 436.76 169.452 436.859 169.54 436.977L171.34 439.377L175.955 432.454C176.12 432.207 176.376 432.035 176.667 431.977C176.959 431.919 177.261 431.979 177.508 432.144C177.756 432.308 177.927 432.565 177.985 432.856C178.044 433.147 177.984 433.45 177.819 433.697L172.326 441.937C172.227 442.086 172.093 442.21 171.937 442.297C171.78 442.384 171.605 442.432 171.426 442.437L171.395 442.431Z" fill="white"/>
<path d="M563.31 326.841C561.344 326.841 559.422 326.258 557.788 325.166C556.153 324.074 554.879 322.521 554.127 320.705C553.374 318.889 553.178 316.89 553.561 314.962C553.945 313.034 554.891 311.262 556.281 309.872C557.672 308.482 559.443 307.535 561.371 307.152C563.299 306.768 565.298 306.965 567.114 307.718C568.93 308.47 570.483 309.744 571.575 311.379C572.667 313.013 573.25 314.935 573.25 316.901C573.25 319.537 572.203 322.065 570.339 323.93C568.475 325.794 565.946 326.841 563.31 326.841Z" fill="#E6E6E6"/>
<path d="M566.777 318.981L564.697 316.901L566.777 314.821C566.868 314.73 566.94 314.622 566.99 314.503C567.039 314.384 567.064 314.256 567.064 314.128C567.064 313.999 567.039 313.871 566.99 313.752C566.94 313.633 566.868 313.525 566.777 313.434C566.686 313.343 566.578 313.271 566.459 313.221C566.34 313.172 566.212 313.147 566.083 313.147C565.955 313.147 565.827 313.172 565.708 313.221C565.589 313.271 565.481 313.343 565.39 313.434L563.31 315.514L561.23 313.434C561.14 313.34 561.031 313.264 560.912 313.212C560.792 313.16 560.663 313.133 560.532 313.131C560.401 313.13 560.272 313.154 560.151 313.204C560.03 313.253 559.92 313.326 559.827 313.418C559.735 313.511 559.662 313.621 559.613 313.742C559.563 313.863 559.539 313.992 559.54 314.123C559.542 314.254 559.569 314.383 559.621 314.503C559.673 314.622 559.749 314.731 559.843 314.821L561.923 316.901L559.843 318.981C559.666 319.166 559.568 319.414 559.571 319.67C559.574 319.926 559.677 320.171 559.858 320.353C560.04 320.534 560.285 320.637 560.541 320.64C560.797 320.643 561.045 320.545 561.23 320.368L563.31 318.288L565.39 320.368C565.575 320.545 565.823 320.643 566.079 320.64C566.335 320.637 566.58 320.534 566.762 320.353C566.943 320.171 567.046 319.926 567.049 319.67C567.052 319.414 566.954 319.166 566.777 318.981Z" fill="white"/>
<path d="M305.875 446.782C303.909 446.782 301.987 446.199 300.353 445.107C298.718 444.015 297.444 442.462 296.692 440.646C295.939 438.83 295.743 436.831 296.126 434.903C296.51 432.975 297.456 431.204 298.846 429.813C300.237 428.423 302.008 427.477 303.936 427.093C305.864 426.709 307.863 426.906 309.679 427.659C311.495 428.411 313.048 429.685 314.14 431.32C315.232 432.954 315.815 434.876 315.815 436.842C315.815 438.147 315.558 439.44 315.058 440.646C314.559 441.852 313.827 442.948 312.904 443.871C311.981 444.794 310.885 445.526 309.679 446.025C308.473 446.525 307.18 446.782 305.875 446.782Z" fill="#E6E6E6"/>
<path d="M309.342 438.922L307.262 436.842L309.342 434.762C309.526 434.578 309.629 434.329 309.629 434.068C309.629 433.808 309.526 433.559 309.342 433.375C309.158 433.191 308.909 433.088 308.649 433.088C308.388 433.088 308.139 433.191 307.955 433.375L305.875 435.455L303.795 433.375C303.611 433.191 303.362 433.088 303.102 433.088C302.841 433.088 302.592 433.191 302.408 433.375C302.224 433.559 302.121 433.808 302.121 434.068C302.121 434.329 302.224 434.578 302.408 434.762L304.488 436.842L302.408 438.922C302.231 439.107 302.133 439.355 302.136 439.611C302.139 439.867 302.242 440.112 302.423 440.294C302.605 440.475 302.85 440.578 303.106 440.581C303.362 440.584 303.61 440.486 303.795 440.309L305.875 438.229L307.955 440.309C308.14 440.486 308.388 440.584 308.644 440.581C308.9 440.578 309.145 440.475 309.327 440.294C309.508 440.112 309.611 439.867 309.614 439.611C309.617 439.355 309.519 439.107 309.342 438.922Z" fill="white"/>
<path d="M418.5 151C428.165 151 436 143.165 436 133.5C436 123.835 428.165 116 418.5 116C408.835 116 401 123.835 401 133.5C401 143.165 408.835 151 418.5 151Z" fill="#A0616A"/>
<path opacity="0.5" d="M569.048 128.424H408.035C393.265 128.424 381.291 140.398 381.291 155.168V229.181C381.291 243.951 393.265 255.925 408.035 255.925H569.048C583.818 255.925 595.792 243.951 595.792 229.181V155.168C595.792 140.398 583.818 128.424 569.048 128.424Z" fill="white"/>
<path d="M556.674 257.388H420.409C409.65 257.376 399.335 253.096 391.727 245.489C384.12 237.881 379.84 227.566 379.828 216.807V167.543C379.84 156.784 384.12 146.469 391.727 138.861C399.335 131.254 409.65 126.974 420.409 126.962H556.674C567.432 126.975 577.747 131.255 585.354 138.862C592.961 146.47 597.24 156.785 597.252 167.543V216.807C597.24 227.565 592.961 237.88 585.354 245.488C577.747 253.095 567.432 257.375 556.674 257.388ZM420.409 129.888C410.426 129.899 400.854 133.87 393.795 140.929C386.735 147.988 382.764 157.56 382.752 167.543V216.807C382.764 226.79 386.735 236.361 393.795 243.421C400.854 250.48 410.426 254.451 420.409 254.462H556.674C566.657 254.45 576.229 250.479 583.288 243.42C590.347 236.361 594.318 226.789 594.33 216.806V167.543C594.318 157.56 590.347 147.988 583.288 140.929C576.229 133.87 566.657 129.899 556.674 129.887L420.409 129.888Z" fill="white"/>
<path d="M529.254 195.835C529.343 204.022 531.954 221.067 530.082 229.086L529.782 228.415C528.229 229.646 526.58 230.75 524.85 231.715C523.602 228.679 521.736 225.937 519.37 223.662C519.682 227.425 519.237 231.213 518.062 234.802C511.072 237.318 498.802 229.389 491.197 229.221C478.962 228.941 467.039 225.899 455.351 222.678C451.202 221.537 446.638 220.05 444.76 216.605C442.882 213.16 446.244 209.442 446.024 205.555C444.457 177.868 457.645 173.227 470.193 165.828C472.954 164.2 474.309 160.694 477.429 159.328C481.757 157.438 486.913 158.344 491.622 159.294C490.453 158.909 489.402 158.229 488.571 157.32C487.741 156.411 487.158 155.303 486.88 154.104C486.684 152.928 486.816 151.722 487.262 150.617C487.708 149.511 488.451 148.551 489.408 147.841C490.836 146.906 492.451 146.297 494.14 146.055C495.829 145.813 497.55 145.945 499.183 146.441C502.381 147.441 505.407 148.928 508.153 150.848C510.018 151.871 511.685 153.22 513.074 154.83C513.729 155.592 514.135 156.536 514.239 157.535C514.343 158.534 514.14 159.541 513.656 160.422C513.059 161.177 512.299 161.787 511.434 162.207C510.568 162.628 509.618 162.847 508.656 162.849C507.173 162.892 505.691 162.738 504.249 162.39C510.859 164.021 516.816 167.625 521.327 172.724C526.928 179.249 529.154 187.648 529.254 195.835Z" fill="#2F2E41"/>
<path d="M485.362 222.491C500.337 222.491 512.477 210.351 512.477 195.376C512.477 180.401 500.337 168.261 485.362 168.261C470.387 168.261 458.247 180.401 458.247 195.376C458.247 210.351 470.387 222.491 485.362 222.491Z" fill="#FFB6B6"/>
<path d="M514.95 191.283C511.762 195.142 507.02 194.94 502.804 194.325C501.473 194.135 500.142 193.925 498.811 193.676C498.576 192.927 498.311 192.176 498.006 191.45C496.758 188.414 494.892 185.672 492.526 183.397C492.775 186.371 492.545 189.365 491.844 192.266C489.373 191.695 486.912 191.058 484.462 190.354C482.295 190.002 480.346 188.83 479.018 187.082C477.69 185.333 477.084 183.141 477.326 180.959C473.803 183.643 469.967 185.97 465.94 186.014C463.67 185.955 461.479 185.171 459.688 183.776C457.897 182.381 456.599 180.449 455.986 178.263C455.051 174.723 454.887 171.023 455.505 167.414C456.042 163.108 457.25 158.377 460.158 156.643C462.496 155.234 465.191 156.243 467.596 157.381C472.894 159.924 477.916 163.005 482.583 166.575L482.639 167.749C483.847 161.967 487.839 157.504 492.19 157.057C495.12 156.766 497.983 158.12 500.746 159.484C504.357 161.077 507.714 163.191 510.711 165.758C514.097 168.838 516.449 172.89 517.444 177.358C518.484 182.201 517.701 187.95 514.95 191.283Z" fill="#2F2E41"/>
<path d="M488.109 153.652C488.387 153.675 487.709 153.519 487.926 153.612C487.817 153.562 487.712 153.504 487.613 153.437C487.596 153.426 487.376 153.248 487.52 153.372C487.189 153.115 486.939 152.768 486.801 152.372C486.493 151.407 486.35 150.397 486.377 149.385C486.433 148.053 486.206 146.723 485.711 145.485C485.564 145.15 485.341 144.855 485.059 144.622C484.777 144.39 484.444 144.227 484.087 144.148C483.73 144.068 483.36 144.074 483.006 144.164C482.652 144.255 482.324 144.427 482.049 144.668C481.276 145.709 480.903 146.994 480.997 148.287C480.927 149.539 481.059 150.794 481.389 152.004C481.956 153.993 483.09 155.774 484.652 157.13C486.456 158.71 488.721 159.666 491.112 159.857C491.44 159.85 491.76 159.747 492.031 159.561C492.302 159.375 492.513 159.115 492.638 158.812C492.764 158.508 492.799 158.175 492.738 157.852C492.678 157.529 492.525 157.23 492.298 156.993L489.298 154.143C488.981 153.839 488.558 153.672 488.119 153.677C487.681 153.681 487.261 153.858 486.951 154.168C486.64 154.478 486.464 154.897 486.459 155.336C486.454 155.775 486.622 156.198 486.925 156.515L489.925 159.365L491.111 156.501C490.615 156.456 490.126 156.355 489.653 156.201C489.14 156.058 488.65 155.844 488.197 155.563C487.753 155.32 487.338 155.029 486.957 154.696C486.712 154.482 486.479 154.256 486.257 154.018C486.177 153.932 486.099 153.844 486.022 153.755C486.027 153.761 485.706 153.355 485.844 153.542C485.498 153.067 485.196 152.562 484.944 152.031C484.855 151.843 484.781 151.648 484.724 151.448C484.618 151.12 484.531 150.786 484.464 150.448C484.336 149.736 484.298 149.01 484.349 148.288C484.364 147.982 484.394 147.676 484.441 147.373C484.483 147.213 484.515 147.051 484.535 146.887C484.541 146.48 484.479 147.105 484.267 147.2L483.42 147.429C483.282 147.418 483.149 147.377 483.029 147.307C482.91 147.238 482.808 147.143 482.73 147.029C482.695 146.889 482.705 146.914 482.76 147.103C482.823 147.326 482.872 147.552 482.907 147.781C482.972 148.312 483.009 148.846 483.02 149.381C483.03 150.516 483.162 151.648 483.413 152.755C483.648 153.868 484.228 154.878 485.071 155.642C485.914 156.406 486.976 156.884 488.107 157.008C488.551 157.004 488.975 156.826 489.289 156.512C489.603 156.198 489.781 155.774 489.784 155.33C489.775 154.888 489.596 154.467 489.284 154.154C488.972 153.841 488.551 153.661 488.109 153.652Z" fill="#2F2E41"/>
<path d="M421.429 160.57C426.989 160.57 431.497 156.062 431.497 150.502C431.497 144.942 426.989 140.434 421.429 140.434C415.869 140.434 411.361 144.942 411.361 150.502C411.361 156.062 415.869 160.57 421.429 160.57Z" fill="#890620"/>
<path d="M420.054 155.742C419.879 155.743 419.707 155.702 419.551 155.625C419.395 155.547 419.259 155.434 419.154 155.294L416.407 151.632C416.229 151.394 416.152 151.096 416.194 150.802C416.236 150.508 416.393 150.242 416.631 150.064C416.869 149.886 417.167 149.809 417.461 149.851C417.755 149.893 418.021 150.05 418.199 150.288L419.999 152.688L424.614 145.765C424.695 145.641 424.799 145.534 424.922 145.451C425.044 145.367 425.182 145.309 425.327 145.279C425.472 145.249 425.621 145.249 425.767 145.277C425.912 145.305 426.05 145.362 426.173 145.444C426.297 145.526 426.402 145.632 426.484 145.755C426.567 145.879 426.623 146.017 426.652 146.162C426.68 146.307 426.679 146.457 426.649 146.602C426.62 146.747 426.561 146.885 426.478 147.007L420.985 155.247C420.886 155.396 420.752 155.52 420.596 155.607C420.439 155.694 420.264 155.742 420.085 155.747L420.054 155.742Z" fill="white"/>
<path d="M558.922 161.556C556.956 161.556 555.034 160.973 553.4 159.881C551.765 158.789 550.491 157.236 549.739 155.42C548.986 153.604 548.79 151.605 549.173 149.677C549.557 147.749 550.503 145.977 551.893 144.587C553.284 143.197 555.055 142.251 556.983 141.867C558.911 141.483 560.91 141.68 562.726 142.433C564.542 143.185 566.095 144.459 567.187 146.094C568.279 147.728 568.862 149.65 568.862 151.616C568.862 152.921 568.605 154.214 568.105 155.42C567.606 156.626 566.874 157.722 565.951 158.645C565.028 159.568 563.932 160.3 562.726 160.799C561.52 161.299 560.227 161.556 558.922 161.556Z" fill="#E6E6E6"/>
<path d="M562.389 153.696L560.309 151.616L562.389 149.536C562.566 149.351 562.664 149.103 562.661 148.847C562.658 148.591 562.555 148.346 562.374 148.164C562.192 147.983 561.947 147.88 561.691 147.877C561.435 147.874 561.187 147.972 561.002 148.149L558.922 150.229L556.842 148.149C556.751 148.058 556.643 147.986 556.524 147.936C556.405 147.887 556.277 147.862 556.148 147.862C556.02 147.862 555.892 147.887 555.773 147.936C555.654 147.986 555.546 148.058 555.455 148.149C555.364 148.24 555.292 148.348 555.242 148.467C555.193 148.586 555.168 148.714 555.168 148.843C555.168 148.971 555.193 149.099 555.242 149.218C555.292 149.337 555.364 149.445 555.455 149.536L557.535 151.616L555.455 153.696C555.271 153.88 555.168 154.129 555.168 154.39C555.168 154.65 555.271 154.899 555.455 155.083C555.639 155.267 555.888 155.37 556.148 155.37C556.409 155.37 556.658 155.267 556.842 155.083L558.922 153.003L561.002 155.083C561.187 155.26 561.435 155.358 561.691 155.355C561.947 155.352 562.192 155.249 562.374 155.068C562.555 154.886 562.658 154.641 562.661 154.385C562.664 154.129 562.566 153.881 562.389 153.696Z" fill="white"/>
<path d="M626.569 67.284H38.961C38.5797 67.274 38.2174 67.1156 37.9513 66.8424C37.6852 66.5692 37.5362 66.2029 37.5362 65.8215C37.5362 65.4401 37.6852 65.0738 37.9513 64.8006C38.2174 64.5274 38.5797 64.369 38.961 64.359H626.569C626.95 64.369 627.313 64.5274 627.579 64.8006C627.845 65.0738 627.994 65.4401 627.994 65.8215C627.994 66.2029 627.845 66.5692 627.579 66.8424C627.313 67.1156 626.95 67.274 626.569 67.284Z" fill="white"/>
<path d="M104.809 43.882C111.052 43.882 116.113 38.7082 116.113 32.326C116.113 25.9438 111.052 20.77 104.809 20.77C98.566 20.77 93.505 25.9438 93.505 32.326C93.505 38.7082 98.566 43.882 104.809 43.882Z" fill="white"/>
<path d="M143.858 43.882C150.101 43.882 155.162 38.7082 155.162 32.326C155.162 25.9438 150.101 20.77 143.858 20.77C137.615 20.77 132.554 25.9438 132.554 32.326C132.554 38.7082 137.615 43.882 143.858 43.882Z" fill="white"/>
<path d="M182.907 43.882C189.15 43.882 194.211 38.7082 194.211 32.326C194.211 25.9438 189.15 20.77 182.907 20.77C176.664 20.77 171.603 25.9438 171.603 32.326C171.603 38.7082 176.664 43.882 182.907 43.882Z" fill="white"/>
<path d="M227.433 41.459C227.255 41.4596 227.079 41.4245 226.914 41.3558C226.75 41.2871 226.602 41.1862 226.477 41.059L218.85 33.259C218.606 33.0093 218.469 32.6739 218.469 32.3245C218.469 31.9751 218.606 31.6397 218.85 31.39L226.477 23.59C226.598 23.459 226.745 23.3536 226.908 23.2802C227.07 23.2067 227.246 23.1665 227.425 23.1621C227.603 23.1578 227.781 23.1892 227.947 23.2546C228.113 23.32 228.265 23.418 228.393 23.5429C228.52 23.6678 228.622 23.817 228.691 23.9817C228.76 24.1464 228.795 24.3233 228.795 24.5019C228.794 24.6805 228.758 24.8572 228.688 25.0216C228.618 25.186 228.516 25.3347 228.388 25.459L221.675 32.321L228.388 39.183C228.572 39.3712 228.696 39.6094 228.745 39.8678C228.794 40.1262 228.766 40.3933 228.664 40.6357C228.562 40.8782 228.39 41.0851 228.171 41.2306C227.952 41.3762 227.695 41.4539 227.432 41.454L227.433 41.459Z" fill="white"/>
<path d="M240.25 41.458C239.987 41.4577 239.73 41.3798 239.511 41.2342C239.292 41.0886 239.121 40.8817 239.019 40.6393C238.917 40.3969 238.889 40.1299 238.938 39.8716C238.987 39.6132 239.111 39.3751 239.295 39.187L246.007 32.325L239.295 25.463C239.058 25.2075 238.931 24.8696 238.939 24.5214C238.948 24.1731 239.092 23.842 239.341 23.5984C239.59 23.3549 239.924 23.2181 240.273 23.2173C240.621 23.2164 240.956 23.3516 241.206 23.594L248.832 31.394C249.076 31.6437 249.213 31.9791 249.213 32.3285C249.213 32.6779 249.076 33.0133 248.832 33.263L241.206 41.063C241.081 41.1893 240.932 41.2893 240.768 41.3571C240.604 41.4249 240.428 41.4592 240.25 41.458Z" fill="white"/>
<path d="M536.334 22.107H522.148C521.764 22.1069 521.383 22.1825 521.028 22.3296C520.673 22.4766 520.35 22.6922 520.078 22.964C519.806 23.2358 519.591 23.5585 519.444 23.9137C519.296 24.2689 519.221 24.6496 519.221 25.034V39.234C519.221 39.6184 519.296 39.9991 519.444 40.3543C519.591 40.7095 519.806 41.0322 520.078 41.304C520.35 41.5758 520.673 41.7914 521.028 41.9385C521.383 42.0855 521.764 42.1611 522.148 42.161H536.33C537.108 42.1618 537.854 41.8541 538.406 41.3055C538.957 40.7568 539.268 40.0118 539.271 39.234V25.034C539.268 24.2569 538.957 23.5126 538.407 22.964C537.856 22.4154 537.111 22.1073 536.334 22.107Z" fill="white"/>
<path d="M501.581 22.107H487.399C487.015 22.1069 486.634 22.1825 486.279 22.3296C485.924 22.4766 485.601 22.6922 485.329 22.964C485.057 23.2358 484.842 23.5585 484.695 23.9137C484.548 24.2689 484.472 24.6496 484.472 25.034V39.234C484.472 39.6184 484.548 39.999 484.695 40.3541C484.842 40.7092 485.058 41.0319 485.329 41.3037C485.601 41.5755 485.924 41.7911 486.279 41.9382C486.634 42.0853 487.015 42.161 487.399 42.161H501.581C502.359 42.1618 503.105 41.8541 503.657 41.3055C504.208 40.7568 504.519 40.0118 504.522 39.234V25.034C504.519 24.2562 504.208 23.5113 503.657 22.9626C503.105 22.4139 502.359 22.1062 501.581 22.107Z" fill="white"/>
<path d="M569.082 22.776H554.9C554.515 22.7759 554.135 22.8515 553.779 22.9987C553.424 23.1459 553.101 23.3617 552.829 23.6337C552.557 23.9057 552.342 24.2287 552.195 24.5841C552.048 24.9395 551.973 25.3204 551.973 25.705V39.905C551.973 40.2894 552.049 40.6701 552.196 41.0253C552.343 41.3804 552.558 41.7032 552.83 41.975C553.102 42.2468 553.425 42.4624 553.78 42.6094C554.135 42.7565 554.516 42.8321 554.9 42.832H569.082C569.86 42.8328 570.606 42.5251 571.158 41.9764C571.709 41.4277 572.02 40.6828 572.023 39.905V25.705C572.02 24.9272 571.709 24.1822 571.158 23.6335C570.606 23.0849 569.86 22.7772 569.082 22.778V22.776Z" fill="white"/>
<path d="M414.134 28.176H300.772C299.825 28.176 298.918 28.552 298.248 29.2213C297.579 29.8907 297.203 30.7984 297.203 31.745C297.203 32.6916 297.579 33.5993 298.248 34.2686C298.918 34.938 299.825 35.314 300.772 35.314H414.134C415.081 35.314 415.988 34.938 416.658 34.2686C417.327 33.5993 417.703 32.6916 417.703 31.745C417.703 30.7984 417.327 29.8907 416.658 29.2213C415.988 28.552 415.081 28.176 414.134 28.176Z" fill="white"/>
</g>
<defs>
<clipPath id="clip0_6_6">
<rect width="681.618" height="554.363" fill="white"/>
</clipPath>
</defs>
</svg>
