<svg width="436" height="292" viewBox="0 0 436 292" fill="none" xmlns="http://www.w3.org/2000/svg">
<g clip-path="url(#clip0_8_363)">
<path d="M77.2712 225.376C76.6545 224.337 73.9865 225.45 73.496 224.507C73.0072 223.567 75.4861 222.135 76.9024 218.864C77.1578 218.274 78.7672 214.557 77.5758 213.41C75.3174 211.235 64.9829 220.208 61.3663 217.272C60.5725 216.627 60.0181 215.341 57.6159 213.252C56.6602 212.421 56.0824 212.046 55.5231 212.186C54.7296 212.384 54.6667 213.445 53.8158 215.532C52.5396 218.662 51.7849 218.473 51.0414 220.97C50.4894 222.824 50.6155 223.901 49.966 224.111C49.0469 224.408 48.2009 222.442 47.0361 222.618C45.8475 222.798 45.1289 225.087 44.9019 226.801C44.476 230.017 45.6579 232.14 46.313 234.372C47.025 236.797 47.4475 240.485 45.8034 245.707L29.5308 291.526C33.1233 282.124 43.5253 256.351 47.8962 246.773C49.158 244.008 50.5512 241.204 53.4119 240.097C56.166 239.031 59.9485 239.668 64.7708 238.507C65.334 238.371 66.8968 237.974 67.0935 237.055C67.2561 236.296 66.3369 235.872 66.4781 235.16C66.6675 234.206 68.4753 234.195 70.6968 233.094C72.2632 232.318 73.2391 231.394 74.0783 230.601C74.3313 230.361 78.0923 226.76 77.2712 225.376Z" fill="#F2F2F2"/>
<path d="M13.2498 249.497C12.5615 249.5 12.3381 251.13 11.7334 251.098C11.1308 251.067 11.1429 249.438 9.94502 247.799C9.72901 247.504 8.36774 245.642 7.46061 245.895C5.74121 246.376 7.16587 254.033 4.68034 254.96C4.13488 255.164 3.34311 255.064 1.62431 255.64C0.940527 255.869 0.589569 256.044 0.496742 256.359C0.36504 256.805 0.868145 257.142 1.64754 258.162C2.8164 259.691 2.50581 260.006 3.51759 261.092C4.2687 261.897 4.83435 262.146 4.75005 262.525C4.63079 263.062 3.42109 262.91 3.17147 263.532C2.91676 264.167 3.8337 265.18 4.60997 265.785C6.06672 266.922 7.45009 266.955 8.73516 267.278C10.1317 267.628 12.065 268.485 14.155 270.798L31.9625 292C28.3815 287.525 18.7251 274.987 15.2826 270.079C14.2888 268.663 13.3135 267.17 13.5953 265.448C13.8666 263.789 15.2705 262.118 16.0917 259.417C16.1876 259.102 16.4433 258.221 16.0489 257.859C15.7229 257.56 15.2495 257.889 14.9409 257.614C14.5269 257.246 15.0428 256.356 15.1431 254.949C15.2139 253.957 15.0421 253.211 14.8944 252.571C14.8498 252.378 14.1661 249.494 13.2498 249.497Z" fill="#F2F2F2"/>
<path d="M26.9822 252.578L26.5675 248.878L26.757 248.598C27.6338 247.301 28.0807 246.034 28.0861 244.832C28.0869 244.641 28.078 244.45 28.0691 244.255C28.0333 243.483 27.9886 242.524 28.4892 241.405C28.7698 240.782 29.5581 239.339 30.7433 239.517C31.0624 239.562 31.3037 239.708 31.487 239.88C31.5138 239.837 31.5415 239.794 31.571 239.748C31.9401 239.185 32.2324 238.944 32.5139 238.712C32.7302 238.533 32.9537 238.349 33.304 237.913C33.4578 237.722 33.5775 237.554 33.6786 237.413C33.9851 236.986 34.3855 236.477 35.0916 236.486C35.846 236.521 36.2411 237.145 36.5029 237.557C36.9704 238.293 37.1822 238.824 37.3226 239.176C37.3735 239.305 37.4316 239.449 37.4611 239.494C37.7042 239.851 39.6804 239.517 40.4249 239.396C42.0972 239.117 43.5443 238.876 44.1405 239.93C44.5677 240.684 44.2504 241.681 43.1689 242.972C42.8319 243.374 42.4735 243.68 42.1553 243.919C42.419 244.076 42.6549 244.317 42.7506 244.696C42.9758 245.593 42.2045 246.492 40.4589 247.37C40.0254 247.59 39.4418 247.883 38.6239 248.024C38.2387 248.09 37.8919 248.107 37.5952 248.115C37.5889 248.287 37.5487 248.473 37.4441 248.664C37.1375 249.227 36.4994 249.495 35.5377 249.43C34.4794 249.375 33.608 249.173 32.8393 248.996C32.1681 248.843 31.5898 248.712 31.1357 248.742C30.2938 248.81 29.6449 249.484 28.8834 250.357L26.9822 252.578Z" fill="#F2F2F2"/>
<path d="M28.906 230.55L25.4301 231.889L25.1106 231.777C23.6329 231.258 22.2935 231.148 21.1285 231.447C20.9432 231.495 20.7605 231.552 20.5743 231.61C19.8364 231.84 18.9191 232.127 17.7098 231.927C17.0351 231.814 15.438 231.418 15.3103 230.227C15.2726 229.907 15.3532 229.636 15.4727 229.416C15.4244 229.401 15.3759 229.385 15.3234 229.368C14.6851 229.154 14.3776 228.933 14.0813 228.719C13.8536 228.556 13.6188 228.386 13.108 228.158C12.884 228.058 12.6911 227.985 12.5289 227.923C12.0378 227.735 11.4435 227.477 11.273 226.792C11.1163 226.054 11.6195 225.514 11.9525 225.156C12.5464 224.518 13.0062 224.178 13.3112 223.953C13.4228 223.871 13.5481 223.778 13.5839 223.739C13.868 223.413 13.0434 221.587 12.737 220.899C12.0431 219.353 11.4426 218.015 12.3116 217.171C12.9329 216.567 13.9783 216.621 15.5027 217.339C15.9773 217.563 16.3639 217.832 16.6763 218.078C16.7616 217.784 16.9351 217.494 17.2775 217.306C18.0884 216.861 19.1538 217.378 20.4473 218.843C20.7699 219.206 21.2016 219.696 21.5456 220.451C21.7073 220.806 21.8108 221.138 21.8947 221.422C22.0623 221.385 22.2523 221.377 22.4639 221.429C23.0863 221.583 23.5076 222.132 23.6892 223.078C23.9041 224.115 23.9297 225.008 23.9535 225.796C23.9751 226.484 23.9955 227.076 24.1401 227.507C24.4194 228.304 25.2358 228.761 26.2746 229.275L28.906 230.55Z" fill="#F2F2F2"/>
<path d="M26.9822 219.65L26.5675 215.95L26.757 215.67C27.6338 214.373 28.0807 213.106 28.0861 211.904C28.0869 211.713 28.078 211.522 28.0691 211.327C28.0333 210.555 27.9886 209.596 28.4892 208.478C28.7698 207.854 29.5581 206.411 30.7433 206.589C31.0624 206.634 31.3037 206.78 31.487 206.952C31.5138 206.909 31.5415 206.866 31.571 206.82C31.9401 206.257 32.2324 206.016 32.5139 205.784C32.7302 205.605 32.9537 205.421 33.304 204.985C33.4578 204.794 33.5775 204.626 33.6786 204.485C33.9851 204.058 34.3855 203.549 35.0916 203.558C35.846 203.593 36.2411 204.217 36.5029 204.63C36.9704 205.366 37.1822 205.896 37.3226 206.248C37.3735 206.377 37.4316 206.521 37.4611 206.566C37.7042 206.923 39.6804 206.589 40.4249 206.468C42.0972 206.189 43.5443 205.948 44.1405 207.002C44.5677 207.756 44.2504 208.753 43.1689 210.044C42.8319 210.446 42.4735 210.752 42.1553 210.991C42.419 211.148 42.6549 211.389 42.7506 211.768C42.9758 212.665 42.2045 213.564 40.4589 214.443C40.0254 214.662 39.4418 214.955 38.6239 215.096C38.2387 215.162 37.8919 215.179 37.5952 215.187C37.5889 215.359 37.5487 215.545 37.4441 215.736C37.1375 216.299 36.4994 216.567 35.5377 216.502C34.4794 216.447 33.608 216.245 32.8393 216.068C32.1681 215.915 31.5898 215.784 31.1357 215.815C30.2938 215.882 29.6449 216.556 28.8834 217.429L26.9822 219.65Z" fill="#F2F2F2"/>
<path d="M30.7702 291.466L29.9944 290.98L29.0898 291.083C29.0755 290.999 29.0264 290.806 28.9522 290.504C28.5473 288.85 27.313 283.816 26.2833 275.888C25.5647 270.353 25.158 264.663 25.074 258.973C24.99 253.275 25.2599 248.96 25.4762 245.493C25.6398 242.878 25.8382 240.387 26.0331 237.961C26.5515 231.48 27.0404 225.358 26.6766 218.58C26.5961 217.067 26.4272 213.917 24.586 210.566C23.5179 208.622 22.0467 206.897 20.2126 205.439L21.3531 204.006C23.3776 205.617 25.0052 207.529 26.1913 209.687C28.2327 213.403 28.4168 216.835 28.5053 218.483C28.8753 225.381 28.3811 231.562 27.8573 238.106C27.6642 240.523 27.4658 243.003 27.3031 245.607C27.0886 249.043 26.8214 253.319 26.9045 258.945C26.9867 264.567 27.3889 270.187 28.0977 275.652C29.1149 283.48 30.3313 288.439 30.7308 290.069C30.9436 290.939 30.9883 291.121 30.7702 291.466Z" fill="#F2F2F2"/>
<path d="M16.8555 208.345C16.7804 208.345 16.7044 208.344 16.6275 208.338C15.0688 208.254 13.6253 207.322 12.3364 205.567C11.7322 204.742 11.423 203.801 10.8062 201.923C10.7106 201.634 10.2458 200.165 9.96339 198.145C9.77836 196.824 9.80161 196.272 10.0635 195.785C10.354 195.242 10.8241 194.863 11.3532 194.608C11.33 194.432 11.3488 194.252 11.4248 194.068C11.7367 193.305 12.5661 193.405 13.0148 193.453C13.2418 193.482 13.5252 193.52 13.8309 193.503C14.3117 193.48 14.57 193.337 14.9615 193.123C15.336 192.917 15.8017 192.662 16.4926 192.521C17.8547 192.237 18.9961 192.623 19.3724 192.75C21.3521 193.409 22.3282 194.947 23.4579 196.728C23.6832 197.085 24.4563 198.386 24.9666 200.169C25.3349 201.455 25.2831 202.027 25.1722 202.452C24.947 203.325 24.4152 203.826 23.0647 204.93C21.6542 206.085 20.9464 206.664 20.3386 207.016C18.9237 207.833 18.0353 208.345 16.8555 208.345Z" fill="#F2F2F2"/>
<path d="M425.889 290.634C425.889 290.972 425.614 291.247 425.275 291.247H0V290.021H425.275C425.614 290.021 425.889 290.295 425.889 290.634Z" fill="#E6E6E6"/>
<path d="M303.118 96.7944C303.118 96.7944 280.226 99.5458 284.087 81.4577C287.948 63.3696 309.842 29.9598 309.842 29.9598L322.266 36.9229L308.002 70.6179L314.143 75.4591L303.118 96.7944Z" fill="#A0616A"/>
<path d="M378.135 74.7735L374.91 101.287L294.078 100.892L310.312 72.6953L378.135 74.7735Z" fill="#880720"/>
<path d="M330.1 31.3686C335.046 24.4645 335.443 16.2822 330.986 13.0928C326.529 9.90345 318.906 12.9148 313.959 19.8189C309.013 26.723 308.616 34.9053 313.073 38.0947C317.53 41.284 325.153 38.2727 330.1 31.3686Z" fill="#A0616A"/>
<path d="M370.363 175.857V290.923H375.326V175.857H370.363Z" fill="#3F3D56"/>
<path d="M346.542 175.857V290.923H351.504V175.857H346.542Z" fill="#3F3D56"/>
<path d="M213.04 103.446V290.923H218.003V103.446H213.04Z" fill="#E6E6E6"/>
<path d="M292.942 175.857V290.923H297.905V175.857H292.942Z" fill="#3F3D56"/>
<path d="M273.95 175.857V290.923H278.913V175.857H273.95Z" fill="#3F3D56"/>
<path d="M365.897 173.378H270.058L251.674 199.438L347.038 205.12L365.897 173.378Z" fill="#3F3D56"/>
<path d="M190.407 84.2138L190.843 65.3144L133.001 69.7606L132.705 82.5672L190.407 84.2138Z" fill="#A0616A"/>
<path d="M151.26 67.5025L148.494 74.154L144.521 74.2808C144.521 74.2808 149.172 75.7044 150.465 84.1521L146.647 85.2957C146.647 85.2957 142.981 88.714 136.128 88.3824L117.753 86.8463L117.682 80.4446L130.382 78.978C130.382 78.978 133.212 77.1175 119.204 69.4684C119.204 69.4684 114.563 66.6324 118.737 52.6285C119.31 50.7038 121.043 49.3214 123.052 49.2779C124.161 49.2539 125.2 49.652 125.615 51.0283C126.67 54.5317 125.602 58.0242 128.503 60.2111C131.405 62.398 151.26 67.5025 151.26 67.5025Z" fill="#2F2E41"/>
<path d="M358.724 156.468C358.724 156.468 338.766 190.39 293.607 184.277C282.86 182.822 273.405 176.437 268.018 167.03C257.607 148.849 241.797 117.014 246.923 98.9881L170.544 84.42L164.526 65.8825L247.187 55.1516C254.499 54.2024 261.661 57.7558 265.325 64.1501L305.591 134.426L317.595 135.736L358.724 156.468Z" fill="#2F2E41"/>
<path d="M191.915 91.9505L190.828 73.0774L133.531 82.1598L134.267 94.9486L191.915 91.9505Z" fill="#A0616A"/>
<path d="M151.549 78.4409L149.327 85.2933L145.377 85.7391C145.377 85.7391 150.129 86.7841 152.097 95.1005L148.384 96.5473C148.384 96.5473 145.005 100.249 138.147 100.47L119.708 100.416L119.123 94.0408L131.663 91.5578C131.663 91.5578 134.334 89.4758 119.755 82.9778C119.755 82.9778 114.901 80.5241 117.934 66.2301C118.351 64.2654 119.967 62.7482 121.966 62.5433C123.069 62.4303 124.137 62.7435 124.661 64.082C125.995 67.4892 125.212 71.0563 128.28 73.0028C131.348 74.9494 151.549 78.4409 151.549 78.4409Z" fill="#2F2E41"/>
<path d="M365.503 150.438C365.503 150.438 348.341 185.855 302.835 183.392C292.006 182.806 282.068 177.201 275.942 168.259C264.1 150.973 245.779 120.513 249.437 102.133L172.133 93.753L164.642 75.7596L246.172 58.4174C253.383 56.8834 260.808 59.8494 264.975 65.9284L310.768 132.739L322.838 133.079L365.503 150.438Z" fill="#2F2E41"/>
<path d="M313.189 0.880661L309.218 3.85649L330.062 32.6228L334.033 31.6309L313.189 0.880661Z" fill="#3F3D56"/>
<path d="M367.385 64.7598L390.215 63.7678L400.14 108.405C400.14 108.405 379.296 186.769 354.482 183.793C354.482 183.793 339.097 172.386 339.097 168.418C339.097 164.45 318.253 154.531 318.253 154.531L313.29 137.668L328.179 114.853C328.179 114.853 334.134 96.9979 353.986 87.0785L367.385 64.7598Z" fill="#880720"/>
<path d="M236.862 99.4778H33.8805V104.437H133.138V290.923H138.101V104.437H236.862V99.4778Z" fill="#E6E6E6"/>
<path d="M379.296 60.792C394.097 60.792 406.096 48.8011 406.096 34.0096C406.096 19.218 394.097 7.22713 379.296 7.22713C364.495 7.22713 352.497 19.218 352.497 34.0096C352.497 48.8011 364.495 60.792 379.296 60.792Z" fill="#A0616A"/>
<path d="M285.854 68.2316L267.135 75.6711L303.861 124.276L316.764 114.357L285.854 68.2316Z" fill="#E6E6E6"/>
<path d="M358.949 161.474C358.949 161.474 352.001 183.445 337.112 172.46C322.223 161.474 300.821 127.748 300.821 127.748L312.298 119.317L337.112 146.216L344.06 142.627L358.949 161.474Z" fill="#A0616A"/>
<path d="M369.867 84.1027L392.696 97.9899L358.948 171.394L337.112 141.635L369.867 84.1027Z" fill="#880720"/>
<path d="M309.568 128.168C314.315 125.429 314.72 117.247 310.472 109.893C306.223 102.539 298.931 98.7985 294.183 101.538C289.436 104.277 289.031 112.459 293.28 119.813C297.528 127.166 304.821 130.907 309.568 128.168Z" fill="#A0616A"/>
<path d="M382.227 115.099C389.105 92.5649 396.486 85.4338 404.246 89.8985C410.153 93.2969 411.931 101.032 408.469 106.9C399.646 121.855 381.464 156.122 385.252 178.833C385.252 178.833 391.207 210.575 343.564 210.575C295.92 210.575 250.262 199.664 250.262 199.664L275.076 195.696L331.507 199.724C344.4 200.645 355.266 189.62 353.544 176.818C353.487 176.395 353.42 175.968 353.341 175.536C350.512 159.986 382.227 115.099 382.227 115.099Z" fill="#3F3D56"/>
<path d="M369.252 22.9071C367.063 29.0331 371.873 35.3942 378.368 34.9615L378.522 34.9512C382.888 40.4051 383.009 48.12 378.816 53.7075C378.471 60.9091 379.6 68.1053 382.133 74.8561L389.25 93.8234L400.207 88.7134L405.407 102.583L436 86.8334L417.459 45.1423L411.801 22.5238C407.775 6.43171 391.35 -3.25438 375.308 1.00395L363.001 4.27103C353.278 6.85211 347.681 17.0256 350.711 26.6129L369.252 22.9071Z" fill="#2F2E41"/>
</g>
<defs>
<clipPath id="clip0_8_363">
<rect width="436" height="292" fill="white"/>
</clipPath>
</defs>
</svg>
